<?xml version="1.0" encoding="UTF-8" standalone="no"?>
<svg
   viewBox="0 0 90 90"
   fill="none"
   role="img"
   width="128"
   height="128"
   version="1.1"
   id="svg27"
   sodipodi:docname="Generic-powershell.svg"
   xml:space="preserve"
   inkscape:version="1.2.2 (732a01da63, 2022-12-09)"
   xmlns:inkscape="http://www.inkscape.org/namespaces/inkscape"
   xmlns:sodipodi="http://sodipodi.sourceforge.net/DTD/sodipodi-0.dtd"
   xmlns:xlink="http://www.w3.org/1999/xlink"
   xmlns="http://www.w3.org/2000/svg"
   xmlns:svg="http://www.w3.org/2000/svg"
   xmlns:rdf="http://www.w3.org/1999/02/22-rdf-syntax-ns#"
   xmlns:cc="http://creativecommons.org/ns#"
   xmlns:dc="http://purl.org/dc/elements/1.1/"><defs
     id="defs31"><linearGradient
       inkscape:collect="always"
       id="linearGradient10804"><stop
         style="stop-color:#8282d7;stop-opacity:1;"
         offset="0"
         id="stop10800" /><stop
         style="stop-color:#8282d7;stop-opacity:0;"
         offset="1"
         id="stop10802" /></linearGradient><linearGradient
       inkscape:collect="always"
       id="linearGradient6588"><stop
         style="stop-color:#0000ff;stop-opacity:1;"
         offset="0"
         id="stop6584" /><stop
         style="stop-color:#0000ff;stop-opacity:0.22222224;"
         offset="1"
         id="stop6586" /></linearGradient><linearGradient
       inkscape:collect="always"
       id="linearGradient5765"><stop
         style="stop-color:#5e5ea1;stop-opacity:1;"
         offset="0"
         id="stop5761" /><stop
         style="stop-color:#b9009d;stop-opacity:0.58789623"
         offset="1"
         id="stop5763" /></linearGradient><linearGradient
       inkscape:collect="always"
       xlink:href="#linearGradient5765"
       id="linearGradient5767"
       x1="21.557936"
       y1="28.042843"
       x2="38.783165"
       y2="61.482502"
       gradientUnits="userSpaceOnUse"
       gradientTransform="matrix(1.4764652,0,0,1.9704245,-45.310906,-62.730208)" /><linearGradient
       inkscape:collect="always"
       xlink:href="#linearGradient6588"
       id="linearGradient6590"
       x1="62.570595"
       y1="58.101265"
       x2="31.986368"
       y2="39.259979"
       gradientUnits="userSpaceOnUse"
       gradientTransform="matrix(1.4764652,0,0,1.6852459,-44.596678,-55.373613)" /><linearGradient
       inkscape:collect="always"
       xlink:href="#linearGradient10804"
       id="linearGradient10806"
       x1="-14.678418"
       y1="-7.6648097"
       x2="-9.4612236"
       y2="18.114271"
       gradientUnits="userSpaceOnUse"
       gradientTransform="matrix(1.1636389,0,0,1.3281842,1.2640987,-0.20657139)" /></defs><sodipodi:namedview
     id="namedview29"
     pagecolor="#ffffff"
     bordercolor="#000000"
     borderopacity="0.25"
     inkscape:showpageshadow="2"
     inkscape:pageopacity="0.0"
     inkscape:pagecheckerboard="0"
     inkscape:deskcolor="#d1d1d1"
     showgrid="false"
     inkscape:zoom="5.6734271"
     inkscape:cx="63.982492"
     inkscape:cy="43.448166"
     inkscape:window-width="1450"
     inkscape:window-height="1243"
     inkscape:window-x="666"
     inkscape:window-y="806"
     inkscape:window-maximized="0"
     inkscape:current-layer="g2672" /><title
     id="title2">Lucy Stone</title><mask
     id="mask__ring"
     maskUnits="userSpaceOnUse"
     x="0"
     y="0"
     width="90"
     height="90"><rect
       width="90"
       height="90"
       rx="180"
       fill="#FFFFFF"
       id="rect4" /></mask><metadata
     id="metadata33"><rdf:RDF><cc:Work
         rdf:about=""><dc:title>Lucy Stone</dc:title></cc:Work></rdf:RDF></metadata><g
     style="fill:#000000"
     id="g2672"
     transform="matrix(1.2114909,0,0,1.2114909,25.466618,24.52961)"><path
       d="m 43.473623,-1.0776806 c 1.593713,0.043391 3.030528,1.33478131 3.210217,2.8973858 l 5.109236,43.5250538 c 0.186571,1.552614 -0.950214,2.784132 -2.53344,2.741038 L -1.7119014,46.698281 c -1.593711,-0.0434 -3.0341264,-1.345055 -3.2102167,-2.897385 L -10.031353,0.27584141 C -10.222245,-1.2891063 -9.0811404,-2.5082889 -7.4979128,-2.465196 Z M 29.029996,23.898547 c 0.332123,-1.062013 -0.236554,-2.466202 -1.444072,-3.411308 L 6.230647,3.7423209 C 4.7857102,2.6115661 2.9465207,2.5492822 2.1316239,3.620553 1.3203232,4.7020983 1.8370188,6.4856601 3.2826854,7.6184599 L 21.087133,21.572791 21.192257,21.872956 5.6011907,36.042215 c -0.9450266,0.853922 -0.5471374,2.636271 0.871253,3.969929 1.4302496,1.33194 3.3482152,1.714019 4.2889223,0.847758 L 28.099578,25.286365 c 0.58867,-0.513386 0.86971,-0.974074 0.931139,-1.385762 z M 25.4433,35.74137 c -1.446334,-0.04959 -2.216875,1.053473 -1.736274,2.455262 0.491092,1.402081 2.056593,2.568694 3.509804,2.608254 l 12.384824,0.337131 c 1.446331,0.04958 2.216876,-1.053476 1.732673,-2.465543 -0.501573,-1.402359 -2.069173,-2.569033 -3.506207,-2.597968 z"
       id="path2663"
       style="fill:#000000;fill-opacity:0.150215;stroke-width:2.06638" /><path
       d="m 41.318623,-4.008971 c 1.593715,0.043405 3.03053,1.3347825 3.210217,2.8973886 l 5.109237,43.5250544 c 0.186571,1.552615 -0.950214,2.784132 -2.533442,2.741035 L -3.8669023,43.766996 c -1.5937084,-0.0434 -3.0341248,-1.345058 -3.2102141,-2.897391 L -12.186352,-2.6554452 c -0.190892,-1.5649489 0.950214,-2.7841328 2.5334404,-2.7410359 z M 26.874996,20.96726 c 0.332123,-1.062013 -0.236554,-2.466206 -1.444073,-3.411309 L 4.0756476,0.81103171 C 2.6307114,-0.31972449 0.7915212,-0.38200569 -0.02337555,0.68926791 -0.83467628,1.7708176 -0.31797906,3.5543762 1.1276876,4.6871762 L 18.932134,18.641504 19.037257,18.941668 3.446192,33.110927 c -0.9450274,0.853927 -0.5471382,2.636276 0.8712522,3.969933 1.4302479,1.331939 3.348216,1.714019 4.2889211,0.847755 L 25.944579,22.355078 c 0.588669,-0.513386 0.86971,-0.974076 0.931138,-1.385764 z m -3.586695,11.842822 c -1.446333,-0.04959 -2.216876,1.053479 -1.736273,2.455264 0.49109,1.402079 2.056593,2.568693 3.509804,2.608253 l 12.384825,0.337125 c 1.446328,0.04959 2.216872,-1.053471 1.732671,-2.465535 -0.501573,-1.40236 -2.069173,-2.569034 -3.506206,-2.597969 z"
       id="path2663-5"
       style="display:inline;fill:url(#linearGradient6590);fill-opacity:1;stroke-width:2.06638" /><path
       d="m 39.021256,-6.6562253 c 1.593713,0.043405 3.03053,1.33478 3.210216,2.8973845 l 5.109237,43.5250578 c 0.186571,1.552616 -0.950213,2.784132 -2.533443,2.741034 L -6.1642698,41.119739 c -1.5937094,-0.0434 -3.0341258,-1.345057 -3.2102141,-2.897386 L -14.48372,-5.3027006 c -0.190891,-1.5649477 0.950213,-2.7841316 2.533441,-2.7410346 z M 24.577628,18.320004 c 0.332124,-1.062013 -0.236555,-2.466205 -1.444073,-3.411308 L 1.7782806,-1.8362264 C 0.33334385,-2.9669773 -1.5058469,-3.0292612 -2.3207424,-1.957989 -3.1320469,-0.87644079 -2.6153467,0.90711531 -1.169681,2.039917 L 16.634765,15.994248 16.739887,16.294411 1.148821,30.46367 c -0.9450273,0.853927 -0.54713804,2.636273 0.8712514,3.96993 1.430248,1.331941 3.3482135,1.71402 4.2889228,0.847756 L 23.647211,19.707825 c 0.588668,-0.513388 0.86971,-0.97408 0.931138,-1.385765 z m -3.586699,11.842821 c -1.446329,-0.04958 -2.216874,1.053479 -1.736268,2.455264 0.491089,1.402081 2.056591,2.568695 3.509803,2.608253 l 12.384824,0.337128 c 1.446331,0.04958 2.216873,-1.053472 1.732671,-2.465537 -0.501572,-1.402363 -2.069172,-2.569035 -3.506205,-2.597967 z"
       id="path2663-5-4"
       style="display:inline;fill:#ff2a2a;fill-opacity:0.651064;stroke-width:2.06638" /><path
       d="m 36.751675,-9.5728632 c 1.593711,0.0434 3.030528,1.334781 3.210215,2.8973859 L 45.071127,36.84958 c 0.186569,1.552612 -0.950213,2.784131 -2.533443,2.741033 L -8.4338516,38.203099 c -1.5937104,-0.0434 -3.0341284,-1.345055 -3.2102144,-2.897387 l -5.109235,-43.5250532 c -0.190891,-1.564947 0.950212,-2.7841288 2.533438,-2.7410338 z M 22.308048,15.403363 c 0.332121,-1.062012 -0.236559,-2.466204 -1.444076,-3.411305 L -0.49130066,-4.752863 C -1.9362393,-5.883618 -3.7754291,-5.9458992 -4.5903242,-4.8746257 c -0.8113034,1.0815483 -0.2946043,2.8651058 1.1510615,3.99790741 L 14.365183,13.077611 14.470306,13.377776 -1.1207575,27.547035 c -0.9450279,0.853926 -0.5471391,2.636274 0.87125187,3.969931 1.43024633,1.33194 3.34821433,1.714019 4.28892023,0.847755 L 21.37763,16.791184 c 0.588667,-0.513388 0.869708,-0.974075 0.931137,-1.385764 z m -3.5867,11.842828 c -1.446328,-0.04959 -2.216875,1.053472 -1.73627,2.455261 0.49109,1.40208 2.056592,2.568694 3.509806,2.608254 l 12.384821,0.337125 c 1.446333,0.04958 2.216873,-1.053473 1.732672,-2.465539 -0.501574,-1.40236 -2.069173,-2.569031 -3.506205,-2.597963 z"
       id="path2663-5-4-5"
       style="fill:url(#linearGradient5767);fill-opacity:1;stroke:none;stroke-width:2.06638" /><path
       d="m 34.155596,-12.399675 c 1.593713,0.0434 3.030528,1.334782 3.210215,2.8973858 l 5.109237,43.5250552 c 0.18657,1.552614 -0.950212,2.784132 -2.533443,2.741035 l -50.971536,-1.387514 c -1.593709,-0.04341 -3.034126,-1.345055 -3.210214,-2.897387 l -5.109235,-43.525053 c -0.190892,-1.564946 0.950213,-2.784128 2.533439,-2.741033 z M 19.711969,12.576552 C 20.04409,11.514539 19.47541,10.110348 18.267893,9.1652455 L -3.0873801,-7.5796752 c -1.4449379,-1.130755 -3.2841273,-1.193036 -4.0990224,-0.121761 -0.8113035,1.0815488 -0.2946033,2.8651061 1.1510615,3.9979064 L 11.769107,10.250799 11.87423,10.550962 -3.716835,24.720223 c -0.9450277,0.853925 -0.5471386,2.636274 0.8712524,3.96993 1.4302459,1.331941 3.34821352,1.71402 4.2889201,0.847755 L 18.781549,13.964373 c 0.58867,-0.513389 0.869711,-0.974076 0.93114,-1.385764 z M 16.12527,24.419379 c -1.44633,-0.04958 -2.216874,1.053474 -1.73627,2.455262 0.49109,1.40208 2.056591,2.568694 3.509805,2.608252 l 12.384822,0.337127 c 1.446331,0.04958 2.216873,-1.053473 1.732671,-2.46554 -0.501572,-1.40236 -2.069173,-2.56903 -3.506205,-2.597964 z"
       id="path2663-5-4-5-3"
       style="fill:url(#linearGradient10806);fill-opacity:1;stroke:#3134ff;stroke-width:0.262634;stroke-dasharray:none;stroke-opacity:0.587896;paint-order:stroke markers fill" /></g><g
     inkscape:groupmode="layer"
     id="layer1"
     inkscape:label="Text-B" /><g
     inkscape:groupmode="layer"
     id="layer2"
     inkscape:label="Text-M" /></svg>
