<?xml version="1.0" encoding="UTF-8" standalone="no"?>
<svg
   viewBox="0 0 90 90"
   fill="none"
   role="img"
   width="128"
   height="128"
   version="1.1"
   id="svg27"
   sodipodi:docname="powershell-hollow-a1.svg"
   xml:space="preserve"
   inkscape:version="1.2.2 (732a01da63, 2022-12-09)"
   xmlns:inkscape="http://www.inkscape.org/namespaces/inkscape"
   xmlns:sodipodi="http://sodipodi.sourceforge.net/DTD/sodipodi-0.dtd"
   xmlns:xlink="http://www.w3.org/1999/xlink"
   xmlns="http://www.w3.org/2000/svg"
   xmlns:svg="http://www.w3.org/2000/svg"
   xmlns:rdf="http://www.w3.org/1999/02/22-rdf-syntax-ns#"
   xmlns:cc="http://creativecommons.org/ns#"
   xmlns:dc="http://purl.org/dc/elements/1.1/"><defs
     id="defs31"><linearGradient
       inkscape:collect="always"
       id="linearGradient10804"><stop
         style="stop-color:#8282d7;stop-opacity:1;"
         offset="0"
         id="stop10800" /><stop
         style="stop-color:#8282d7;stop-opacity:0;"
         offset="1"
         id="stop10802" /></linearGradient><linearGradient
       inkscape:collect="always"
       id="linearGradient6588"><stop
         style="stop-color:#0000ff;stop-opacity:1;"
         offset="0"
         id="stop6584" /><stop
         style="stop-color:#0000ff;stop-opacity:0.22222224;"
         offset="1"
         id="stop6586" /></linearGradient><linearGradient
       inkscape:collect="always"
       id="linearGradient5765"><stop
         style="stop-color:#5e5ea1;stop-opacity:1;"
         offset="0"
         id="stop5761" /><stop
         style="stop-color:#b9009d;stop-opacity:0.58789623"
         offset="1"
         id="stop5763" /></linearGradient><linearGradient
       inkscape:collect="always"
       xlink:href="#linearGradient5765"
       id="linearGradient5767"
       x1="21.557936"
       y1="28.042843"
       x2="38.783165"
       y2="61.482502"
       gradientUnits="userSpaceOnUse"
       gradientTransform="matrix(1.6709075,-0.04334847,-0.26473412,2.5434462,-41.430552,-80.331153)" /><linearGradient
       inkscape:collect="always"
       xlink:href="#linearGradient6588"
       id="linearGradient6590"
       x1="62.570595"
       y1="58.101265"
       x2="31.986368"
       y2="39.259979"
       gradientUnits="userSpaceOnUse"
       gradientTransform="matrix(1.0354306,-0.02686224,-0.14030784,1.3480147,-23.385109,-40.283826)" /><linearGradient
       inkscape:collect="always"
       xlink:href="#linearGradient10804"
       id="linearGradient10806"
       x1="-14.678418"
       y1="-7.6648097"
       x2="-9.4612236"
       y2="18.114271"
       gradientUnits="userSpaceOnUse"
       gradientTransform="matrix(1.5043943,-0.03902861,-0.20385562,1.958553,4.923951,0.31837989)" /></defs><sodipodi:namedview
     id="namedview29"
     pagecolor="#ffffff"
     bordercolor="#000000"
     borderopacity="0.25"
     inkscape:showpageshadow="2"
     inkscape:pageopacity="0.0"
     inkscape:pagecheckerboard="0"
     inkscape:deskcolor="#d1d1d1"
     showgrid="false"
     inkscape:zoom="5.6734271"
     inkscape:cx="81.784782"
     inkscape:cy="76.761364"
     inkscape:window-width="2097"
     inkscape:window-height="1243"
     inkscape:window-x="666"
     inkscape:window-y="806"
     inkscape:window-maximized="0"
     inkscape:current-layer="g2672" /><title
     id="title2">Lucy Stone</title><mask
     id="mask__ring"
     maskUnits="userSpaceOnUse"
     x="0"
     y="0"
     width="90"
     height="90"><rect
       width="90"
       height="90"
       rx="180"
       fill="#FFFFFF"
       id="rect4" /></mask><metadata
     id="metadata33"><rdf:RDF><cc:Work
         rdf:about=""><dc:title>Lucy Stone</dc:title></cc:Work></rdf:RDF></metadata><g
     style="fill:#000000"
     id="g2672"
     transform="matrix(1.2114909,0,0,1.2114909,25.466618,24.52961)"><path
       d="m 25.779863,7.1929447 c 0.629998,0.00325 1.139014,0.5726008 1.136707,1.2775861 l -0.02301,19.6357362 c 8.48e-4,0.700397 -0.507921,1.269162 -1.133775,1.265959 L 5.610602,29.269012 C 4.9806049,29.26578 4.4706434,28.691805 4.4738959,27.991431 L 4.4969078,8.3556943 C 4.4948761,7.6497634 5.0048294,7.0865326 5.6306836,7.0897359 Z M 18.875813,18.6394 c 0.181717,-0.483813 0.02232,-1.113138 -0.412084,-1.528228 L 10.78295,9.7564225 C 10.26315,9.2597994 9.536689,9.2505483 9.163075,9.7435189 8.7904055,10.241096 8.9113444,11.042562 9.4313389,11.540104 l 6.4039621,6.128978 0.02755,0.134696 -6.8502882,6.56979 c -0.4149878,0.395989 -0.3411072,1.198131 0.1586123,1.78681 0.5045038,0.587782 1.2471489,0.74088 1.6610039,0.339353 l 7.609298,-7.222986 c 0.257627,-0.238281 0.390775,-0.449564 0.43452,-0.63642 z m -1.980014,5.393933 c -0.571255,-0.0076 -0.928775,0.499341 -0.804176,1.128486 0.128746,0.629171 0.694672,1.140775 1.269131,1.143718 l 4.895752,0.02506 c 0.571257,0.0076 0.928779,-0.499342 0.803235,-1.133101 -0.13289,-0.629188 -0.699646,-1.140798 -1.268188,-1.139102 z"
       id="path2663"
       style="fill:#000000;fill-opacity:0.150215;stroke-width:0.874029" /><path
       d="m 32.590006,-0.76077042 c 1.114044,0.00572 2.014154,1.0125454 2.010068,2.25919202 l -0.04069,34.7223854 c 0.0016,1.238528 -0.898172,2.244291 -2.004887,2.238623 L -3.0758253,38.276928 c -1.1140399,-0.0057 -2.0158172,-1.020699 -2.0100652,-2.259193 l 0.04069,-34.722382 c -0.00358,-1.24831696 0.8981742,-2.24429347 2.0048873,-2.23862564 z M 20.381395,19.480296 c 0.321335,-0.855537 0.03946,-1.968393 -0.728701,-2.702405 L 6.0705749,3.7722957 C 5.1513981,2.894101 3.8667774,2.8777438 3.2061069,3.7494803 2.5471036,4.6293631 2.7609652,6.0466175 3.680484,6.9264327 L 15.004778,17.764459 15.053515,18.002647 2.9399641,29.62018 c -0.7338335,0.700242 -0.60319,2.118691 0.2804775,3.159665 0.8921263,1.039386 2.2053678,1.310112 2.9371975,0.600082 L 19.613358,20.607329 c 0.455572,-0.421364 0.691017,-0.794978 0.768374,-1.125403 z m -3.501306,9.538234 c -1.01017,-0.01336 -1.642381,0.883001 -1.422048,1.995534 0.227664,1.112577 1.228406,2.017259 2.244235,2.022466 l 8.657291,0.04434 c 1.010165,0.01336 1.642377,-0.882996 1.420377,-2.003686 -0.234993,-1.112612 -1.237203,-2.017304 -2.242571,-2.014303 z"
       id="path2663-5"
       style="display:inline;fill:url(#linearGradient6590);fill-opacity:1;stroke-width:1.54556" /><path
       d="m 40.273958,-8.6937531 c 1.536167,0.00786 2.777341,1.3962094 2.771707,3.1152246 l -0.05611,47.8791455 c 0.0022,1.707826 -1.238504,3.094683 -2.764568,3.086867 L -8.906117,45.135827 c -1.536165,-0.0079 -2.779638,-1.407454 -2.771705,-3.115224 l 0.05611,-47.8791424 c -0.005,-1.7213184 1.238499,-3.0946837 2.7645624,-3.086867 z M 23.439347,19.216913 c 0.443093,-1.179712 0.05435,-2.714243 -1.004816,-3.726381 L 3.7059726,-2.443055 C 2.438507,-3.6540021 0.66712648,-3.6765597 -0.2438781,-2.4745231 -1.1525899,-1.2612421 -0.85769006,0.69302426 0.41024519,1.9062152 L 16.02546,16.850914 l 0.0672,0.328436 -16.70352387,16.019568 c -1.01189243,0.965572 -0.83174603,2.921487 0.38675363,4.3569 1.23016404,1.433226 3.04100754,1.806535 4.05014054,0.827461 L 22.380288,20.770996 c 0.628192,-0.581025 0.952853,-1.096212 1.059518,-1.551833 z m -4.828002,13.152391 c -1.392934,-0.01841 -2.264699,1.217584 -1.960876,2.751668 0.313928,1.53415 1.693864,2.781628 3.094607,2.788803 l 11.937646,0.06114 c 1.392935,0.0184 2.264698,-1.217576 1.958576,-2.762908 -0.324032,-1.534199 -1.705993,-2.781688 -3.092309,-2.777547 z"
       id="path2663-5-4"
       style="display:inline;fill:#ff2a2a;fill-opacity:0.651064;stroke-width:2.13119" /><path
       d="m 44.297331,-14.124375 c 1.79776,0.0092 3.250297,1.633974 3.243708,3.645727 l -0.06566,56.032628 c 0.0026,1.998651 -1.449409,3.621685 -3.235352,3.612536 l -57.497795,-0.294512 c -1.797759,-0.0092 -3.25299,-1.647133 -3.243705,-3.64573 l 0.06566,-56.032623 c -0.0058,-2.014446 1.449409,-3.621683 3.235347,-3.612538 z M 24.595904,18.539277 c 0.518546,-1.380607 0.06358,-3.176458 -1.175932,-4.360954 L 1.5020721,-6.8092265 c -1.48330817,-1.4171676 -3.5563419,-1.443563 -4.6224837,-0.036829 -1.0634574,1.4198954 -0.7183397,3.7069607 0.7655164,5.1267502 l 18.2743772,17.4896733 0.07864,0.384371 -19.5480152,18.747587 c -1.1842112,1.130002 -0.9733876,3.418996 0.4526156,5.098852 1.4396505,1.677292 3.55887064,2.114173 4.7398485,0.968372 L 23.356496,20.358008 c 0.735166,-0.679968 1.115114,-1.282881 1.239945,-1.816098 z m -5.650178,15.39216 c -1.630138,-0.02154 -2.650363,1.424919 -2.294801,3.220254 0.36739,1.795403 1.982321,3.255321 3.621598,3.263718 l 13.970541,0.07154 c 1.630146,0.02153 2.650362,-1.42492 2.292111,-3.233415 -0.379217,-1.795452 -1.996513,-3.255379 -3.618908,-3.250535 z"
       id="path2663-5-4-5"
       style="fill:url(#linearGradient5767);fill-opacity:1;stroke:none;stroke-width:2.49414" /><path
       d="m 49.318715,-18.764871 c 2.053745,0.01051 3.713104,1.86664 3.70558,4.164843 l -0.075,64.01109 c 0.0029,2.283246 -1.655786,4.137379 -3.696036,4.12693 l -65.684883,-0.33645 c -2.053739,-0.01051 -3.716181,-1.881666 -3.705578,-4.164842 l 0.07502,-64.011089 c -0.0066,-2.301281 1.655789,-4.137371 3.696027,-4.126924 z M 26.812013,18.54975 c 0.59238,-1.577194 0.07268,-3.628751 -1.343371,-4.98191 L 0.42985791,-10.408118 c -1.69451331,-1.61896 -4.06272581,-1.649113 -5.28067601,-0.04206 -1.2148828,1.622075 -0.8206224,4.2347951 0.8745186,5.8567446 L 16.900159,15.386582 16.989996,15.82568 -5.3414582,37.24273 c -1.3528295,1.290905 -1.1119864,3.905824 0.5170655,5.824875 1.6446415,1.916121 4.06561558,2.41521 5.41475315,1.106256 L 25.396123,20.627449 c 0.839852,-0.776791 1.2739,-1.46555 1.416505,-2.07469 z m -6.454704,17.583843 c -1.862257,-0.0246 -3.027747,1.627817 -2.621557,3.678789 0.419703,2.051049 2.264581,3.718842 4.137275,3.728432 l 15.959801,0.08175 c 1.862263,0.0246 3.027747,-1.627815 2.618483,-3.693822 -0.433209,-2.051111 -2.280796,-3.718918 -4.1342,-3.713384 z"
       id="path2663-5-4-5-3"
       style="fill:url(#linearGradient10806);fill-opacity:1;stroke:#3134ff;stroke-width:0.362137;stroke-dasharray:none;stroke-opacity:0.587896;paint-order:stroke markers fill" /></g><g
     inkscape:groupmode="layer"
     id="layer1"
     inkscape:label="Text-B" /><g
     inkscape:groupmode="layer"
     id="layer2"
     inkscape:label="Text-M" /></svg>
