<?xml version="1.0" encoding="UTF-8" standalone="no"?>
<!-- Created with Inkscape (http://www.inkscape.org/) -->

<svg
   width="64.371758mm"
   height="7.9793758mm"
   viewBox="0 0 64.371758 7.9793758"
   version="1.1"
   id="svg6293"
   inkscape:version="1.2.2 (732a01da63, 2022-12-09)"
   sodipodi:docname="title-PSMPacker.svg"
   xml:space="preserve"
   xmlns:inkscape="http://www.inkscape.org/namespaces/inkscape"
   xmlns:sodipodi="http://sodipodi.sourceforge.net/DTD/sodipodi-0.dtd"
   xmlns:xlink="http://www.w3.org/1999/xlink"
   xmlns="http://www.w3.org/2000/svg"
   xmlns:svg="http://www.w3.org/2000/svg"><sodipodi:namedview
     id="namedview6295"
     pagecolor="#ffffff"
     bordercolor="#000000"
     borderopacity="0.25"
     inkscape:showpageshadow="2"
     inkscape:pageopacity="0.0"
     inkscape:pagecheckerboard="0"
     inkscape:deskcolor="#d1d1d1"
     inkscape:document-units="mm"
     showgrid="false"
     inkscape:zoom="1.829812"
     inkscape:cx="92.632465"
     inkscape:cy="-64.487498"
     inkscape:window-width="2010"
     inkscape:window-height="1424"
     inkscape:window-x="399"
     inkscape:window-y="496"
     inkscape:window-maximized="0"
     inkscape:current-layer="layer1"><inkscape:grid
       type="xygrid"
       id="grid1535"
       originx="-0.84369769"
       originy="-0.48411204" /></sodipodi:namedview><defs
     id="defs6290"><linearGradient
       inkscape:collect="always"
       id="linearGradient2065"><stop
         style="stop-color:#bd706b;stop-opacity:1;"
         offset="0"
         id="stop2061" /><stop
         style="stop-color:#bd706b;stop-opacity:0;"
         offset="1"
         id="stop2063" /></linearGradient><linearGradient
       inkscape:collect="always"
       id="linearGradient28938"><stop
         style="stop-color:#8282d7;stop-opacity:0.96296293;"
         offset="0"
         id="stop28934" /><stop
         style="stop-color:#8282d7;stop-opacity:0;"
         offset="1"
         id="stop28936" /></linearGradient><linearGradient
       inkscape:collect="always"
       id="linearGradient26364"><stop
         style="stop-color:#3134ff;stop-opacity:1;"
         offset="0"
         id="stop26360" /><stop
         style="stop-color:#3134ff;stop-opacity:0;"
         offset="1"
         id="stop26362" /></linearGradient><linearGradient
       id="linearGradient26338"
       inkscape:swatch="solid"><stop
         style="stop-color:#3134ff;stop-opacity:1;"
         offset="0"
         id="stop26336" /></linearGradient><linearGradient
       inkscape:collect="always"
       id="linearGradient22087"><stop
         style="stop-color:#c83737;stop-opacity:1;"
         offset="0"
         id="stop22083" /><stop
         style="stop-color:#c83737;stop-opacity:0;"
         offset="1"
         id="stop22085" /></linearGradient><linearGradient
       inkscape:collect="always"
       id="linearGradient20623"><stop
         style="stop-color:#eaeaff;stop-opacity:1;"
         offset="0"
         id="stop20619" /><stop
         style="stop-color:#3134ff;stop-opacity:0;"
         offset="1"
         id="stop20621" /></linearGradient><linearGradient
       inkscape:collect="always"
       id="linearGradient15261"><stop
         style="stop-color:#ff8431;stop-opacity:1;"
         offset="0"
         id="stop15257" /><stop
         style="stop-color:#3134ff;stop-opacity:0;"
         offset="1"
         id="stop15259" /></linearGradient><linearGradient
       inkscape:collect="always"
       id="linearGradient15193"><stop
         style="stop-color:#f3feff;stop-opacity:1;"
         offset="0"
         id="stop15189" /><stop
         style="stop-color:#3134ff;stop-opacity:0;"
         offset="1"
         id="stop15191" /></linearGradient><linearGradient
       inkscape:collect="always"
       id="linearGradient10804"><stop
         style="stop-color:#8282d7;stop-opacity:1;"
         offset="0"
         id="stop10800" /><stop
         style="stop-color:#8282d7;stop-opacity:0;"
         offset="1"
         id="stop10802" /></linearGradient><linearGradient
       inkscape:collect="always"
       xlink:href="#linearGradient15193"
       id="linearGradient15195"
       x1="-20.263863"
       y1="15.402559"
       x2="50.123638"
       y2="15.402559"
       gradientUnits="userSpaceOnUse"
       gradientTransform="translate(1.1607599)" /><radialGradient
       inkscape:collect="always"
       xlink:href="#linearGradient15261"
       id="radialGradient15263"
       cx="16.087246"
       cy="17.077702"
       fx="16.087246"
       fy="17.077702"
       r="37.108147"
       gradientTransform="matrix(1.0041193,0,0,0.99824731,1.2488335,0.18337894)"
       gradientUnits="userSpaceOnUse" /><radialGradient
       inkscape:collect="always"
       xlink:href="#linearGradient26364"
       id="radialGradient18763"
       cx="13.739542"
       cy="16.181152"
       fx="13.739542"
       fy="16.181152"
       r="24.44046"
       gradientTransform="matrix(1.1233341,0.42669556,-0.26890714,1.1200312,2.4330267,-7.2732198)"
       gradientUnits="userSpaceOnUse" /><linearGradient
       inkscape:collect="always"
       xlink:href="#linearGradient20623"
       id="linearGradient20629"
       x1="51.952759"
       y1="6.6779213"
       x2="43.988899"
       y2="17.521503"
       gradientUnits="userSpaceOnUse"
       gradientTransform="translate(1.5913825,-0.86802684)" /><linearGradient
       inkscape:collect="always"
       xlink:href="#linearGradient22087"
       id="linearGradient22089"
       x1="43.257435"
       y1="-10.65986"
       x2="20.619991"
       y2="8.6051273"
       gradientUnits="userSpaceOnUse" /><linearGradient
       inkscape:collect="always"
       xlink:href="#linearGradient26364"
       id="linearGradient26366"
       x1="34.075272"
       y1="-7.1141748"
       x2="20.619991"
       y2="8.6051273"
       gradientUnits="userSpaceOnUse" /><linearGradient
       inkscape:collect="always"
       xlink:href="#linearGradient28938"
       id="linearGradient27112"
       x1="4.6911082"
       y1="17.165182"
       x2="9.8060055"
       y2="11.538795"
       gradientUnits="userSpaceOnUse" /><linearGradient
       inkscape:collect="always"
       xlink:href="#linearGradient10804"
       id="linearGradient28561"
       gradientUnits="userSpaceOnUse"
       x1="4.6911082"
       y1="17.165182"
       x2="9.8060055"
       y2="11.538795" /><linearGradient
       inkscape:collect="always"
       xlink:href="#linearGradient10804"
       id="linearGradient610"
       gradientUnits="userSpaceOnUse"
       x1="4.6911082"
       y1="17.165182"
       x2="9.8060055"
       y2="11.538795" /><linearGradient
       inkscape:collect="always"
       xlink:href="#linearGradient10804"
       id="linearGradient612"
       gradientUnits="userSpaceOnUse"
       x1="4.6911082"
       y1="17.165182"
       x2="9.8060055"
       y2="11.538795" /><linearGradient
       inkscape:collect="always"
       xlink:href="#linearGradient10804"
       id="linearGradient614"
       gradientUnits="userSpaceOnUse"
       x1="4.6911082"
       y1="17.165182"
       x2="9.8060055"
       y2="11.538795" /><linearGradient
       inkscape:collect="always"
       xlink:href="#linearGradient10804"
       id="linearGradient616"
       gradientUnits="userSpaceOnUse"
       x1="4.6911082"
       y1="17.165182"
       x2="9.8060055"
       y2="11.538795" /><linearGradient
       inkscape:collect="always"
       xlink:href="#linearGradient2065"
       id="linearGradient2067"
       x1="7.2535648"
       y1="6.8107085"
       x2="48.691124"
       y2="6.8107085"
       gradientUnits="userSpaceOnUse" /></defs><g
     inkscape:label="Layer 1"
     inkscape:groupmode="layer"
     id="layer1"
     transform="translate(-0.84369768,-0.48411206)"><text
       xml:space="preserve"
       style="font-style:normal;font-variant:normal;font-weight:normal;font-stretch:normal;font-size:13.1267px;font-family:Bahnschrift;-inkscape-font-specification:'Bahnschrift, Normal';font-variant-ligatures:normal;font-variant-caps:normal;font-variant-numeric:normal;font-variant-east-asian:normal;display:inline;fill:#1a1a1a;fill-opacity:0.956772;fill-rule:evenodd;stroke:#7b3fb8;stroke-width:0.3;stroke-linejoin:bevel;stroke-dasharray:1.8, 1.8;stroke-dashoffset:0;stroke-opacity:0.996078"
       x="7.1061459"
       y="9.38766"
       id="text6831"
       transform="scale(1.3362899,0.74834061)"><tspan
         sodipodi:role="line"
         id="tspan6829"
         style="font-style:normal;font-variant:normal;font-weight:normal;font-stretch:normal;font-size:13.1267px;font-family:'Microsoft Himalaya';-inkscape-font-specification:'Microsoft Himalaya';font-variant-ligatures:normal;font-variant-caps:normal;font-variant-numeric:normal;font-variant-east-asian:normal;fill:#1a1a1a;fill-opacity:0.956772;stroke:#7b3fb8;stroke-width:0.3;stroke-dasharray:1.8, 1.8;stroke-dashoffset:0;stroke-opacity:0.996078"
         x="7.1061459"
         y="9.38766">PSMPacker</tspan></text><g
       style="fill:none"
       id="g608"
       transform="matrix(0.0880425,0,0,0.0880425,0.71841164,0.48411199)"><g
         style="fill:#000000"
         id="g2672"
         transform="matrix(1.2114909,0,0,1.2114909,25.919687,24.440094)"><rect
           style="display:inline;fill:#241f1c;fill-opacity:0.900958;fill-rule:evenodd;stroke:url(#radialGradient15263);stroke-width:0.723218;stroke-linejoin:bevel;stroke-dasharray:none;stroke-opacity:0.587896;paint-order:normal"
           id="rect14375"
           width="74.522003"
           height="74.08622"
           x="-19.858658"
           y="-19.811958"
           ry="18.383673"
           inkscape:label="Bottom Shadow" /><rect
           style="display:inline;fill:#ff2a2a;fill-opacity:0.900958;fill-rule:evenodd;stroke:#3134ff;stroke-width:0.348228;stroke-linejoin:bevel;stroke-dasharray:none;stroke-opacity:0.587896;paint-order:normal"
           id="rect14375-2"
           width="70.988548"
           height="70.573425"
           x="-19.715277"
           y="-19.929987"
           ry="17.512012"
           inkscape:label="Bottom Shadow" /><rect
           style="display:inline;fill:#0000ff;fill-opacity:0.600639;fill-rule:evenodd;stroke:url(#linearGradient15195);stroke-width:0.889722;stroke-dasharray:none;stroke-opacity:0.587896;paint-order:fill markers stroke"
           id="rect14375-0"
           width="70.310173"
           height="69.89901"
           x="-19.06444"
           y="-19.546946"
           ry="17.344664"
           inkscape:label="Blue Mid Reg" /><rect
           style="display:inline;fill:url(#linearGradient22089);fill-opacity:1;fill-rule:evenodd;stroke:url(#linearGradient26366);stroke-width:0.54962;stroke-dasharray:none;stroke-opacity:0.587896;paint-order:fill markers stroke"
           id="rect14375-0-8"
           width="65.543419"
           height="64.834297"
           x="-17.803864"
           y="-16.962626"
           ry="16.08791"
           inkscape:label="3 Reg - Orange Fade" /><rect
           style="display:none;fill:#0000ff;fill-opacity:0.600639;fill-rule:evenodd;stroke:url(#linearGradient20629);stroke-width:0.791477;stroke-dasharray:none;stroke-opacity:0.587896;paint-order:fill markers stroke"
           id="rect14375-0-4"
           width="62.546329"
           height="62.180569"
           x="-17.361786"
           y="-14.436808"
           ry="15.429418"
           inkscape:label="Top Layer - Mid Outline" /><g
           id="g26747"
           style="display:inline;fill:url(#linearGradient27112);fill-opacity:1"
           transform="matrix(0.62856161,0.94238819,-0.75043481,0.28365735,18.354318,0.31596433)"><path
             d="m 35.071962,-3.9467307 c 1.360269,0.018872 2.470495,1.1054097 2.479421,2.4379265 L 37.889092,35.60612 c 0.01574,1.323902 -1.071594,2.388672 -2.422908,2.369932 L -8.0390577,37.372648 c -1.3602637,-0.01884 -2.4726223,-1.11414 -2.4794173,-2.437924 L -10.856183,-2.1802 c -0.01829,-1.3343886 1.0715918,-2.3886712 2.4229098,-2.3699327 z M 20.391564,17.549404 c 0.382792,-0.910818 0.02618,-2.103598 -0.919861,-2.897 L 2.7433684,0.59483691 C 1.6112917,-0.35441326 0.04263922,-0.38662152 -0.75428605,0.53761445 -1.5490862,1.4705819 -1.2721596,2.9879643 -0.13964742,3.9389528 L 13.807786,15.653692 13.869928,15.908853 -0.79061463,28.18823 c -0.88816747,0.740089 -0.71283167,2.257789 0.37770506,3.380634 1.10084829,1.121244 2.70728267,1.42568 3.59289697,0.675101 L 19.466394,18.745308 c 0.551533,-0.445181 0.834835,-0.841846 0.925591,-1.194158 z m -4.16854,10.155468 c -1.233532,-0.02583 -1.995432,0.925031 -1.714,2.116765 0.290381,1.191866 1.522342,2.170366 2.762686,2.187569 l 10.5707,0.146608 c 1.233523,0.02583 1.99543,-0.925031 1.711871,-2.125506 -0.299331,-1.191981 -1.533082,-2.17051 -2.760564,-2.178825 z"
             id="path2663"
             style="display:inline;fill:url(#linearGradient610);fill-opacity:1;stroke:url(#radialGradient18763);stroke-width:1.7656" /><path
             d="m 34.633443,-4.3905717 c 1.360265,0.01889 2.470497,1.1054106 2.479418,2.4379278 l 0.337711,37.1149259 c 0.01573,1.323903 -1.071596,2.38867 -2.422911,2.369928 L -8.4775798,36.928813 C -9.8378409,36.909972 -10.9502,35.81467 -10.956993,34.490883 l -0.337714,-37.1149219 c -0.01829,-1.3343897 1.071596,-2.3886732 2.4229129,-2.3699307 z M 19.953047,17.105569 c 0.382785,-0.91082 0.02618,-2.103606 -0.919869,-2.897005 L 2.3048473,0.15099619 C 1.1727712,-0.79825522 -0.39588185,-0.83046113 -1.1928078,0.09377366 -1.987608,1.026745 -1.710679,2.5441245 -0.57816763,3.4951128 L 13.369264,15.209852 13.431417,15.465015 -1.2291275,27.74439 c -0.8881687,0.740094 -0.7128324,2.257794 0.37770406,3.380639 1.10084677,1.121242 2.70728284,1.425678 3.59289604,0.6751 L 19.027874,18.30147 c 0.551532,-0.445183 0.834833,-0.841851 0.925591,-1.194159 z m -4.168539,10.155465 c -1.233529,-0.02583 -1.995432,0.925036 -1.714,2.116767 0.29038,1.191864 1.522342,2.170363 2.762686,2.187569 l 10.570697,0.146609 c 1.233527,0.02583 1.995432,-0.925029 1.711874,-2.125501 -0.299329,-1.191981 -1.533082,-2.170509 -2.760563,-2.178825 z"
             id="path2663-5"
             style="display:inline;fill:url(#linearGradient612);fill-opacity:1;stroke-width:1.7656" /><path
             d="m 34.323653,-4.7247595 c 1.360267,0.018889 2.470495,1.1054075 2.47942,2.4379249 l 0.33771,37.1149246 c 0.01574,1.323908 -1.071595,2.388675 -2.422914,2.369934 L -8.7873686,36.594622 c -1.3602634,-0.01884 -2.4726214,-1.114143 -2.4794144,-2.437924 l -0.33771,-37.1149252 c -0.01829,-1.3343879 1.071593,-2.3886715 2.4229092,-2.36993 z M 19.643258,16.771381 c 0.382786,-0.910823 0.02617,-2.103604 -0.919868,-2.897005 L 1.9950594,-0.18319447 C 0.86298206,-1.1324415 -0.70567126,-1.164649 -1.5025957,-0.24041707 -2.2973989,0.69255302 -2.0204675,2.2099303 -0.88795674,3.1609205 L 13.059475,14.875661 l 0.06215,0.25516 -14.6605434,12.279376 c -0.8881689,0.740093 -0.7128331,2.257792 0.3777039,3.380636 1.10084605,1.121245 2.7072804,1.425679 3.5928965,0.6751 L 18.718079,17.967282 c 0.551532,-0.445183 0.834839,-0.841851 0.925592,-1.194162 z m -4.168541,10.155464 c -1.233526,-0.02583 -1.99543,0.925035 -1.713998,2.116768 0.29038,1.191865 1.522341,2.170364 2.762688,2.187568 l 10.570699,0.146607 c 1.233527,0.02583 1.995428,-0.925029 1.71187,-2.1255 -0.299328,-1.191986 -1.53308,-2.170511 -2.760565,-2.178824 z"
             id="path2663-5-4"
             style="display:inline;fill:url(#linearGradient614);fill-opacity:1;stroke-width:1.7656" /><path
             d="m 34.02359,-5.3324361 c 1.360263,0.018882 2.470494,1.1054093 2.479414,2.4379252 l 0.33771,37.1149279 c 0.01573,1.323903 -1.071592,2.388672 -2.42291,2.369929 l -43.5052388,-0.6034 c -1.3602642,-0.01884 -2.4726232,-1.114142 -2.4794142,-2.437929 l -0.33771,-37.1149221 c -0.01829,-1.3343887 1.07159,-2.3886706 2.4229079,-2.3699303 z M 19.343185,16.163697 c 0.382794,-0.910817 0.02619,-2.103598 -0.919862,-2.896996 L 1.6949932,-0.79086983 C 0.56291493,-1.7401204 -1.0057379,-1.7723258 -1.8026622,-0.84809241 -2.5974644,0.08487765 -2.3205339,1.6022551 -1.1880227,2.5532455 l 13.9474307,11.7147395 0.06215,0.255164 -14.6605429,12.279376 c -0.8881694,0.74009 -0.7128337,2.25779 0.3777045,3.380637 1.10084494,1.121242 2.7072806,1.425676 3.5928948,0.675095 L 18.41802,17.359605 c 0.551529,-0.445185 0.834832,-0.841847 0.92559,-1.194161 z m -4.168547,10.155472 c -1.233521,-0.02583 -1.995431,0.925029 -1.713996,2.116764 0.290381,1.191863 1.522342,2.170366 2.762688,2.187568 l 10.570697,0.146608 c 1.233531,0.02583 1.99543,-0.925029 1.711871,-2.1255 -0.299331,-1.191986 -1.533078,-2.170512 -2.760562,-2.178824 z"
             id="path2663-5-4-5"
             style="fill:url(#linearGradient616);fill-opacity:1;stroke:none;stroke-width:1.7656" /><path
             d="m 33.490068,-5.5550453 c 1.360264,0.018881 2.470496,1.1054106 2.479417,2.4379254 l 0.337711,37.1149259 c 0.01572,1.323902 -1.071595,2.388672 -2.422911,2.369931 L -9.6209555,35.764335 C -10.981213,35.745406 -12.093576,34.650193 -12.10037,33.32641 l -0.337711,-37.1149251 c -0.01829,-1.3343874 1.071595,-2.3886692 2.42291,-2.3699288 z M 18.809664,15.941087 c 0.382793,-0.910814 0.02618,-2.103596 -0.919862,-2.896995 L 1.1614717,-1.0134793 c -1.13207753,-0.9492504 -2.7007301,-0.9814555 -3.4976543,-0.057223 -0.7948025,0.93297079 -0.5178707,2.4503482 0.6146391,3.4013371 l 13.9474325,11.7147442 0.06215,0.25516 -14.6605435,12.279378 c -0.8881687,0.740091 -0.7128327,2.257793 0.3777051,3.380637 1.10084387,1.121243 2.70727989,1.425679 3.5928937,0.675097 L 17.884496,17.136996 c 0.551535,-0.445186 0.834836,-0.841849 0.925601,-1.194155 z M 14.64112,26.09656 c -1.233524,-0.02583 -1.99543,0.92503 -1.713996,2.116765 0.29038,1.191863 1.52234,2.170364 2.762687,2.187566 L 26.26051,30.5475 c 1.233526,0.02583 1.995427,-0.925031 1.711869,-2.125503 -0.29933,-1.191985 -1.53308,-2.170508 -2.760562,-2.178821 z"
             id="path2663-5-4-5-3"
             style="fill:url(#linearGradient28561);fill-opacity:1;stroke:#3134ff;stroke-width:0.224404;stroke-dasharray:none;stroke-opacity:0.587896;paint-order:stroke markers fill" /></g></g><g
         id="layer1-9"
         inkscape:label="Text-B"
         transform="translate(0.45306926,-0.08951626)" /><g
         id="layer2"
         inkscape:label="Text-M"
         transform="translate(0.45306926,-0.08951626)" /></g></g></svg>
