<?xml version="1.0" encoding="UTF-8" standalone="no"?>
<svg
   viewBox="0 0 105 100"
   fill="none"
   role="img"
   width="105eeeeeeeeeeeee"
   height="100"
   version="1.1"
   id="svg1091"
   sodipodi:docname="ccommits-logo.svg"
   inkscape:version="1.2.2 (732a01da63, 2022-12-09)"
   xml:space="preserve"
   xmlns:inkscape="http://www.inkscape.org/namespaces/inkscape"
   xmlns:sodipodi="http://sodipodi.sourceforge.net/DTD/sodipodi-0.dtd"
   xmlns="http://www.w3.org/2000/svg"
   xmlns:svg="http://www.w3.org/2000/svg"><defs
     id="defs1095" /><sodipodi:namedview
     id="namedview1093"
     pagecolor="#ffffff"
     bordercolor="#000000"
     borderopacity="0.25"
     inkscape:showpageshadow="2"
     inkscape:pageopacity="0.0"
     inkscape:pagecheckerboard="0"
     inkscape:deskcolor="#d1d1d1"
     showgrid="false"
     inkscape:zoom="4.6625"
     inkscape:cx="44.932976"
     inkscape:cy="96.300268"
     inkscape:window-width="2503"
     inkscape:window-height="1576"
     inkscape:window-x="103"
     inkscape:window-y="293"
     inkscape:window-maximized="0"
     inkscape:current-layer="layer1" /><style
     id="style1073">.name-a { font: 4em &quot;Fira Sans&quot;, sans-serif;      font-weight: 300;      fill: rgba(56, 144, 252, 0.879);      text-anchor: middle;      font-size: 4em; }
.name-b { font: 4em &quot;Fira Sans&quot;, sans-serif;      font-weight: 300;      fill: #0ab0c6;      text-anchor: middle; }
.stone_een { fill: #d58307;        transform: rotate(-49deg); }
</style><title
     id="title1075">Commit</title><mask
     id="mask__ring"
     maskUnits="userSpaceOnUse"
     x="0"
     y="0"
     width="90"
     height="90"><rect
       width="90"
       height="90"
       rx="180"
       fill="#FFFFFF"
       id="rect1077" /></mask><!--License: GPL. Made by Viglino: https://github.com/Viglino/font-gis--><!--License: GPL. Made by Viglino: https://github.com/Viglino/font-gis--><svg
     width="100"
     height="100"
     viewBox="0 0 100 100"
     aria-hidden="true"
     role="img"
     class="iconify iconify--gis"
     preserveAspectRatio="xMidYMid"
     version="1.1"
     id="svg1086"
     style="display:inline"
     inkscape:label="svg-bottom-shadow"><path
       d="m 45.022681,3.5312386 c -4.29,0 -8.477,2.182 -10.8,6.12 -2.57,4.3620004 -2.164,9.6970004 0.583,13.6120004 l -12.567,12.42 a 3.5,3.5 0 0 0 -0.045,-0.015 c -5.843,-3.011 -13.1689997,-0.999 -16.5460001,4.73 -3.5,5.935 -1.5,13.686 4.4350001,17.186 3.463,2.042 7.543,2.2 11.037,0.806 l 12.74,19.137 c -1.964,2.217 -3.171,5.117 -3.171,8.287 0,6.89 5.659,12.55 12.548,12.55 6.358,0 11.61,-4.835 12.389,-10.993 l 2.137,-0.76 -1.42,-3.99 -0.947,0.338 a 12.608,12.608 0 0 0 -2.155,-4.623 l 0.184,0.142 32.683,-40.256 a 12.41,12.41 0 0 0 3.64,0.594 l -0.071,1.4 4.226,0.207 0.11,-2.248 c 2.779,-0.922 5.254001,-2.789 6.844999,-5.488 3.38,-5.733 1.591,-13.125 -3.881999,-16.777 a 3.5,3.5 0 0 0 -0.555,-0.408 3.5,3.5 0 0 0 -0.639,-0.293 c -5.843,-3.011 -13.169,-0.999 -16.547,4.73 -0.068,0.115 -0.12,0.235 -0.183,0.352 l -21.504,-4.715 c -0.168,-3.901 -2.153,-7.6630004 -5.586,-9.9530004 a 3.5,3.5 0 0 0 -0.553,-0.409 3.5,3.5 0 0 0 -0.638,-0.293 12.526,12.526 0 0 0 -5.748,-1.39 z m 0.2,6.9300004 c 0.894,0.035 1.795,0.29 2.632,0.783 2.676,1.578 3.538,4.925 1.96,7.601 -1.577,2.676 -4.923,3.54 -7.6,1.961 -2.675,-1.578 -3.54,-4.923 -1.962,-7.6 1.085,-1.84 3.006,-2.823 4.97,-2.745 z m 45.013,10.286 a 5.6,5.6 0 0 1 2.631,0.783 c 2.676,1.578 3.541,4.925 1.963,7.601 -1.578,2.677 -4.925,3.541 -7.601,1.963 -2.677,-1.578 -3.54,-4.925 -1.961,-7.601 1.084,-1.84 3.004,-2.824 4.968,-2.746 z m -73.591,20.46 c 0.893,0.036 1.795,0.29 2.631,0.784 2.677,1.578 3.541,4.923 1.963,7.6 -1.578,2.675 -4.923,3.54 -7.6,1.962 -2.675,-1.578 -3.54,-4.925 -1.962,-7.601 1.085,-1.84 3.004,-2.822 4.969,-2.744 z m 72.827,3.235 -0.424,8.455 4.234,0.211 0.414,-8.459 z m -0.63,12.682 -0.048,0.994 c -0.078,-0.002 -0.154,-0.012 -0.232,-0.012 -6.89,0 -12.551,5.66 -12.551,12.549 0,1.647 0.331,3.22 0.918,4.666 l -4.62,1.64 1.415,3.987 5.51,-1.95 c 2.304,2.572 5.634,4.208 9.328,4.208 6.65,0 12.102999,-5.288 12.477999,-11.85 a 3.5,3.5 0 0 0 0.07,-0.701 3.5,3.5 0 0 0 -0.07,-0.694 c -0.284,-5.024 -3.549999,-9.292 -8.046999,-11.023 l 0.08,-1.598 -4.23,-0.216 z m -0.279,7.983 c 3.106,0 5.548,2.442 5.548,5.549 0,3.106 -2.442,5.55 -5.548,5.55 -3.107,0 -5.551,-2.444 -5.551,-5.55 0,-3.107 2.444,-5.549 5.55,-5.549 z m -20.25,13.271 -7.977,2.834 1.412,3.987 7.984,-2.83 -1.42,-3.99 z m -25.077,1.887 c 3.107,0 5.551,2.442 5.551,5.549 0,3.107 -2.444,5.55 -5.55,5.55 -3.107,0 -5.55,-2.443 -5.55,-5.55 0,-3.107 2.443,-5.549 5.55,-5.549 z"
       fill="#272626"
       fill-rule="evenodd"
       id="path1084"
       style="display:inline;fill:#6f6fff;fill-opacity:1" /></svg><svg
     width="105"
     height="100"
     viewBox="0 0 100 100"
     aria-hidden="true"
     role="img"
     class="iconify iconify--gis"
     preserveAspectRatio="xMidYMid"
     version="1.1"
     id="svg1082"
     style="display:inline"
     inkscape:label="svg-mid-shadow"><path
       d="m 42.02,3.424 c -4.29,0 -8.477,2.182 -10.8,6.12 -2.57,4.362 -2.164,9.697 0.583,13.612 L 19.236,35.576 A 3.5,3.5 0 0 0 19.191,35.561 C 13.348,32.55 6.022,34.562 2.645,40.291 c -3.5,5.935 -1.5,13.686 4.435,17.186 3.463,2.042 7.543,2.2 11.037,0.806 l 12.74,19.137 c -1.964,2.217 -3.171,5.117 -3.171,8.287 0,6.89 5.659,12.55 12.548,12.55 6.358,0 11.61,-4.835 12.389,-10.993 l 2.137,-0.76 -1.42,-3.99 -0.947,0.338 a 12.608,12.608 0 0 0 -2.155,-4.623 l 0.184,0.142 32.683,-40.256 a 12.41,12.41 0 0 0 3.64,0.594 l -0.071,1.4 4.226,0.207 0.11,-2.248 c 2.779,-0.922 5.254,-2.789 6.845,-5.488 3.38,-5.733 1.591,-13.125 -3.882,-16.777 a 3.5,3.5 0 0 0 -0.555,-0.408 3.5,3.5 0 0 0 -0.639,-0.293 c -5.843,-3.011 -13.169,-0.999 -16.547,4.73 -0.068,0.115 -0.12,0.235 -0.183,0.352 L 54.545,15.469 C 54.377,11.568 52.392,7.806 48.959,5.516 A 3.5,3.5 0 0 0 48.406,5.107 3.5,3.5 0 0 0 47.768,4.814 12.526,12.526 0 0 0 42.02,3.424 Z m 0.2,6.93 c 0.894,0.035 1.795,0.29 2.632,0.783 2.676,1.578 3.538,4.925 1.96,7.601 -1.577,2.676 -4.923,3.54 -7.6,1.961 -2.675,-1.578 -3.54,-4.923 -1.962,-7.6 1.085,-1.84 3.006,-2.823 4.97,-2.745 z M 87.233,20.64 a 5.6,5.6 0 0 1 2.631,0.783 c 2.676,1.578 3.541,4.925 1.963,7.601 -1.578,2.677 -4.925,3.541 -7.601,1.963 -2.677,-1.578 -3.54,-4.925 -1.961,-7.601 1.084,-1.84 3.004,-2.824 4.968,-2.746 z M 13.642,41.1 c 0.893,0.036 1.795,0.29 2.631,0.784 2.677,1.578 3.541,4.923 1.963,7.6 -1.578,2.675 -4.923,3.54 -7.6,1.962 -2.675,-1.578 -3.54,-4.925 -1.962,-7.601 1.085,-1.84 3.004,-2.822 4.969,-2.744 z m 72.827,3.235 -0.424,8.455 4.234,0.211 0.414,-8.459 z m -0.63,12.682 -0.048,0.994 c -0.078,-0.002 -0.154,-0.012 -0.232,-0.012 -6.89,0 -12.551,5.66 -12.551,12.549 0,1.647 0.331,3.22 0.918,4.666 l -4.62,1.64 1.415,3.987 5.51,-1.95 c 2.304,2.572 5.634,4.208 9.328,4.208 6.65,0 12.103,-5.288 12.478,-11.85 a 3.5,3.5 0 0 0 0.07,-0.701 3.5,3.5 0 0 0 -0.07,-0.694 C 97.753,64.83 94.487,60.562 89.99,58.831 l 0.08,-1.598 -4.23,-0.216 z M 85.56,65 c 3.106,0 5.548,2.442 5.548,5.549 0,3.106 -2.442,5.55 -5.548,5.55 -3.107,0 -5.551,-2.444 -5.551,-5.55 0,-3.107 2.444,-5.549 5.55,-5.549 z m -20.25,13.271 -7.977,2.834 1.412,3.987 7.984,-2.83 -1.42,-3.99 z m -25.077,1.887 c 3.107,0 5.551,2.442 5.551,5.549 0,3.107 -2.444,5.55 -5.55,5.55 -3.107,0 -5.55,-2.443 -5.55,-5.55 0,-3.107 2.443,-5.549 5.55,-5.549 z"
       fill="#d58307"
       fill-rule="evenodd"
       id="path1080"
       style="display:inline;fill:#241c1c" /></svg><!--License: GPL. Made by Viglino: https://github.com/Viglino/font-gis--><g
     inkscape:groupmode="layer"
     id="layer1"
     inkscape:label="GitIcon"
     style="display:inline"><g
       style="fill:#ff5555"
       id="g4345"
       transform="matrix(0.06749587,0.12804806,-0.11137461,0.11769511,57.34258,14.811665)"><path
         d="m 47.99414,39.99512 v 176 c 0,4.41828 104.56832,93.28628 100.15004,93.28628 -4.41828,0 -116.15004,-88.868 -116.15004,-93.28628 l 0,-176 c 0,-4.418281 127.73988,-154.03246 132.15816,-154.03246 4.41828,0 -116.15816,149.614179 -116.15816,154.03246 z M 80,120 l 96,0 c 8.83237,-0.0101 15.9899,-7.16763 16,-16 V 64 c -0.0101,-8.832369 -7.16763,-15.989899 -16,-16 l -96,0 c -8.832369,0.0101 -15.989899,7.167631 -16,16 v 40 c 0.0101,8.83237 7.167631,15.9899 16,16 z m 136,16 H 80 c -8.832369,0.0101 -15.989899,7.16763 -16,16 v 40 c 0.0101,8.83237 7.167631,15.9899 16,16 l 136,0 c 8.83237,-0.0101 15.9899,-7.16763 16,-16 l 0,-40 c -0.0101,-8.83237 -7.16763,-15.9899 -16,-16 z"
         id="path4337"
         style="fill:#ff5555"
         sodipodi:nodetypes="ssssssscccccccccccccccccc" /></g></g><svg
     width="100"
     height="100"
     viewBox="0 0 100 100"
     aria-hidden="true"
     role="img"
     class="iconify iconify--gis"
     preserveAspectRatio="xMidYMid"
     version="1.1"
     id="svg1620"
     style="display:inline"
     inkscape:label="svg-top"><path
       d="m 42.02,3.424 c -4.29,0 -8.477,2.182 -10.8,6.12 -2.57,4.362 -2.164,9.697 0.583,13.612 L 19.236,35.576 C 19.22103,35.5709 19.20603,35.5659 19.191,35.561 13.348,32.55 6.022,34.562 2.645,40.291 c -3.5,5.935 -1.5,13.686 4.435,17.186 3.463,2.042 7.543,2.2 11.037,0.806 l 12.74,19.137 c -1.964,2.217 -3.171,5.117 -3.171,8.287 0,6.89 5.659,12.55 12.548,12.55 6.358,0 11.61,-4.835 12.389,-10.993 l 2.137,-0.76 -1.42,-3.99 -0.947,0.338 C 51.997132,81.180274 51.263795,79.607087 50.238,78.229 L 46.196041,71.659229 63.243377,27.724941 c 1.176974,0.378198 22.372715,8.716456 23.608862,8.732048 L 86.674,40.109 90.9,40.316 91.01,38.068 c 2.779,-0.922 5.254,-2.789 6.845,-5.488 3.38,-5.733 1.591,-13.125 -3.882,-16.777 -0.171134,-0.153918 -0.357034,-0.29058 -0.555,-0.408 -0.202627,-0.118864 -0.416707,-0.217025 -0.639,-0.293 -5.843,-3.011 -13.169,-0.999 -16.547,4.73 -0.068,0.115 -0.12,0.235 -0.183,0.352 L 54.545,15.469 C 54.377,11.568 52.392,7.806 48.959,5.516 48.788542,5.3618409 48.603315,5.2248463 48.406,5.107 48.203691,4.9881969 47.989949,4.8900366 47.768,4.814 45.990402,3.8985414 44.019479,3.4219263 42.02,3.424 Z m 0.2,6.93 c 0.894,0.035 1.795,0.29 2.632,0.783 2.676,1.578 3.538,4.925 1.96,7.601 -1.577,2.676 -4.923,3.54 -7.6,1.961 -2.675,-1.578 -3.54,-4.923 -1.962,-7.6 1.085,-1.84 3.006,-2.823 4.97,-2.745 z M 87.233,20.64 c 0.928378,0.03868 1.832541,0.307767 2.631,0.783 2.676,1.578 3.541,4.925 1.963,7.601 -1.578,2.677 -4.925,3.541 -7.601,1.963 -2.677,-1.578 -3.54,-4.925 -1.961,-7.601 1.084,-1.84 3.004,-2.824 4.968,-2.746 z M 13.642,41.1 c 0.893,0.036 1.795,0.29 2.631,0.784 2.677,1.578 3.541,4.923 1.963,7.6 -1.578,2.675 -4.923,3.54 -7.6,1.962 -2.675,-1.578 -3.54,-4.925 -1.962,-7.601 1.085,-1.84 3.004,-2.822 4.969,-2.744 z M 86.848146,40.316055 86.045,52.79 90.127342,57.323261 90.693,44.542 Z M 85.839,57.017 85.791,58.011 c -0.078,-0.002 -0.154,-0.012 -0.232,-0.012 -6.89,0 -12.551,5.66 -12.551,12.549 0,1.647 0.331,3.22 0.918,4.666 l -4.62,1.64 1.415,3.987 5.51,-1.95 c 2.304,2.572 5.634,4.208 9.328,4.208 6.65,0 12.103,-5.288 12.478,-11.85 0.04685,-0.230718 0.0703,-0.465574 0.07,-0.701 -1.66e-4,-0.233087 -0.02362,-0.465575 -0.07,-0.694 -0.284,-5.024 -3.55,-9.292 -8.047,-11.023 l 0.08,-1.598 -4.23,-0.216 z M 85.56,65 c 3.106,0 5.548,2.442 5.548,5.549 0,3.106 -2.442,5.55 -5.548,5.55 -3.107,0 -5.551,-2.444 -5.551,-5.55 0,-3.107 2.444,-5.549 5.55,-5.549 z m -20.25,13.271 -7.977,2.834 1.412,3.987 7.984,-2.83 -1.42,-3.99 z m -25.077,1.887 c 3.107,0 5.551,2.442 5.551,5.549 0,3.107 -2.444,5.55 -5.55,5.55 -3.107,0 -5.55,-2.443 -5.55,-5.55 0,-3.107 2.443,-5.549 5.55,-5.549 z"
       fill="#272626"
       fill-rule="evenodd"
       id="path1618"
       style="display:inline;fill:#0000ff;fill-opacity:0.728"
       sodipodi:nodetypes="cccccccccssccccccccccccccccccccccccccccccccccccccccccccccccssccccscccccccsssssscccccccssscc" /></svg></svg>
