<?xml version="1.0" encoding="UTF-8" standalone="no"?>
<!-- Uploaded to: SVG Repo, www.svgrepo.com, Generator: SVG Repo Mixer Tools -->

<svg
   height="800px"
   width="800px"
   version="1.1"
   id="_x32_"
   viewBox="0 0 512 512"
   xml:space="preserve"
   sodipodi:docname="protector.svg"
   inkscape:version="1.2.2 (732a01da63, 2022-12-09)"
   xmlns:inkscape="http://www.inkscape.org/namespaces/inkscape"
   xmlns:sodipodi="http://sodipodi.sourceforge.net/DTD/sodipodi-0.dtd"
   xmlns:xlink="http://www.w3.org/1999/xlink"
   xmlns="http://www.w3.org/2000/svg"
   xmlns:svg="http://www.w3.org/2000/svg"><defs
   id="defs8995"><linearGradient
     inkscape:collect="always"
     id="linearGradient40098"><stop
       style="stop-color:#283d92;stop-opacity:0.71282053;"
       offset="0"
       id="stop40094" /><stop
       style="stop-color:#207551;stop-opacity:1;"
       offset="1"
       id="stop40096" /></linearGradient><linearGradient
     inkscape:collect="always"
     id="linearGradient40064"><stop
       style="stop-color:#2b2075;stop-opacity:1;"
       offset="0"
       id="stop40060" /><stop
       style="stop-color:#352892;stop-opacity:0.41196582;"
       offset="1"
       id="stop40062" /></linearGradient><linearGradient
     inkscape:collect="always"
     id="linearGradient40056"><stop
       style="stop-color:#352892;stop-opacity:0.41196582;"
       offset="0"
       id="stop40054" /><stop
       style="stop-color:#2b2075;stop-opacity:1;"
       offset="1"
       id="stop40052" /></linearGradient><linearGradient
     inkscape:collect="always"
     id="linearGradient39911"><stop
       style="stop-color:#370862;stop-opacity:1;"
       offset="0"
       id="stop39907" /><stop
       style="stop-color:#cea0f7;stop-opacity:0;"
       offset="1"
       id="stop39909" /></linearGradient><linearGradient
     inkscape:collect="always"
     id="linearGradient39859"><stop
       style="stop-color:#9d57dc;stop-opacity:1;"
       offset="0"
       id="stop39855" /><stop
       style="stop-color:#9d57dc;stop-opacity:0;"
       offset="1"
       id="stop39857" /></linearGradient><linearGradient
     inkscape:collect="always"
     id="linearGradient38586"><stop
       style="stop-color:#322588;stop-opacity:1;"
       offset="0"
       id="stop38582" /><stop
       style="stop-color:#d699e2;stop-opacity:0.88888896;"
       offset="1"
       id="stop38584" /></linearGradient><linearGradient
     inkscape:collect="always"
     id="linearGradient38239"><stop
       style="stop-color:#2b2075;stop-opacity:1;"
       offset="0"
       id="stop38235" /><stop
       style="stop-color:#352892;stop-opacity:0.41196582;"
       offset="1"
       id="stop38237" /></linearGradient><linearGradient
     inkscape:collect="always"
     id="linearGradient37505"><stop
       style="stop-color:#6114c7;stop-opacity:1;"
       offset="0"
       id="stop37501" /><stop
       style="stop-color:#9d0cb3;stop-opacity:0;"
       offset="1"
       id="stop37503" /></linearGradient><linearGradient
     inkscape:collect="always"
     xlink:href="#linearGradient37505"
     id="linearGradient37507"
     x1="173.5024"
     y1="260.80282"
     x2="330.00316"
     y2="260.80282"
     gradientUnits="userSpaceOnUse" /><linearGradient
     inkscape:collect="always"
     xlink:href="#linearGradient38239"
     id="linearGradient38241"
     x1="170.96491"
     y1="260.80274"
     x2="332.54059"
     y2="260.80274"
     gradientUnits="userSpaceOnUse" /><radialGradient
     inkscape:collect="always"
     xlink:href="#linearGradient38586"
     id="radialGradient38580"
     cx="251.75275"
     cy="260.80273"
     fx="251.75275"
     fy="260.80273"
     r="80.787842"
     gradientTransform="matrix(1,0,0,0.99997948,0,0.00535088)"
     gradientUnits="userSpaceOnUse" /><linearGradient
     inkscape:collect="always"
     xlink:href="#linearGradient38239"
     id="linearGradient39407"
     gradientUnits="userSpaceOnUse"
     x1="170.96491"
     y1="260.80274"
     x2="332.54059"
     y2="260.80274" /><linearGradient
     inkscape:collect="always"
     xlink:href="#linearGradient37505"
     id="linearGradient39409"
     gradientUnits="userSpaceOnUse"
     x1="173.5024"
     y1="260.80282"
     x2="330.00316"
     y2="260.80282" /><linearGradient
     inkscape:collect="always"
     xlink:href="#linearGradient38239"
     id="linearGradient39411"
     gradientUnits="userSpaceOnUse"
     x1="170.96491"
     y1="260.80274"
     x2="332.54059"
     y2="260.80274" /><linearGradient
     inkscape:collect="always"
     xlink:href="#linearGradient37505"
     id="linearGradient39413"
     gradientUnits="userSpaceOnUse"
     x1="173.5024"
     y1="260.80282"
     x2="330.00316"
     y2="260.80282" /><linearGradient
     inkscape:collect="always"
     xlink:href="#linearGradient38239"
     id="linearGradient39419"
     gradientUnits="userSpaceOnUse"
     x1="170.96491"
     y1="260.80274"
     x2="332.54059"
     y2="260.80274" /><linearGradient
     inkscape:collect="always"
     xlink:href="#linearGradient37505"
     id="linearGradient39421"
     gradientUnits="userSpaceOnUse"
     x1="173.5024"
     y1="260.80282"
     x2="330.00316"
     y2="260.80282" /><linearGradient
     inkscape:collect="always"
     xlink:href="#linearGradient40056"
     id="linearGradient39435"
     gradientUnits="userSpaceOnUse"
     x1="170.96491"
     y1="260.80274"
     x2="332.54059"
     y2="260.80274" /><linearGradient
     inkscape:collect="always"
     xlink:href="#linearGradient40064"
     id="linearGradient39439"
     gradientUnits="userSpaceOnUse"
     x1="170.96491"
     y1="260.80274"
     x2="332.54059"
     y2="260.80274" /><linearGradient
     inkscape:collect="always"
     xlink:href="#linearGradient37505"
     id="linearGradient39441"
     gradientUnits="userSpaceOnUse"
     x1="173.5024"
     y1="260.80282"
     x2="330.00316"
     y2="260.80282" /><linearGradient
     inkscape:collect="always"
     xlink:href="#linearGradient38239"
     id="linearGradient39443"
     gradientUnits="userSpaceOnUse"
     x1="170.96491"
     y1="260.80274"
     x2="332.54059"
     y2="260.80274" /><linearGradient
     inkscape:collect="always"
     xlink:href="#linearGradient37505"
     id="linearGradient39445"
     gradientUnits="userSpaceOnUse"
     x1="173.5024"
     y1="260.80282"
     x2="330.00316"
     y2="260.80282" /><linearGradient
     inkscape:collect="always"
     xlink:href="#linearGradient38239"
     id="linearGradient39447"
     gradientUnits="userSpaceOnUse"
     x1="170.96491"
     y1="260.80274"
     x2="332.54059"
     y2="260.80274" /><linearGradient
     inkscape:collect="always"
     xlink:href="#linearGradient37505"
     id="linearGradient39449"
     gradientUnits="userSpaceOnUse"
     x1="173.5024"
     y1="260.80282"
     x2="330.00316"
     y2="260.80282" /><linearGradient
     inkscape:collect="always"
     xlink:href="#linearGradient38239"
     id="linearGradient39451"
     gradientUnits="userSpaceOnUse"
     x1="170.96491"
     y1="260.80274"
     x2="332.54059"
     y2="260.80274" /><linearGradient
     inkscape:collect="always"
     xlink:href="#linearGradient37505"
     id="linearGradient39453"
     gradientUnits="userSpaceOnUse"
     x1="173.5024"
     y1="260.80282"
     x2="330.00316"
     y2="260.80282" /><linearGradient
     inkscape:collect="always"
     xlink:href="#linearGradient38239"
     id="linearGradient39455"
     gradientUnits="userSpaceOnUse"
     x1="170.96491"
     y1="260.80274"
     x2="332.54059"
     y2="260.80274" /><linearGradient
     inkscape:collect="always"
     xlink:href="#linearGradient37505"
     id="linearGradient39457"
     gradientUnits="userSpaceOnUse"
     x1="173.5024"
     y1="260.80282"
     x2="330.00316"
     y2="260.80282" /><linearGradient
     inkscape:collect="always"
     xlink:href="#linearGradient38239"
     id="linearGradient39459"
     gradientUnits="userSpaceOnUse"
     x1="170.96491"
     y1="260.80274"
     x2="332.54059"
     y2="260.80274" /><linearGradient
     inkscape:collect="always"
     xlink:href="#linearGradient37505"
     id="linearGradient39461"
     gradientUnits="userSpaceOnUse"
     x1="173.5024"
     y1="260.80282"
     x2="330.00316"
     y2="260.80282" /><linearGradient
     inkscape:collect="always"
     xlink:href="#linearGradient38239"
     id="linearGradient39463"
     gradientUnits="userSpaceOnUse"
     x1="170.96491"
     y1="260.80274"
     x2="332.54059"
     y2="260.80274" /><linearGradient
     inkscape:collect="always"
     xlink:href="#linearGradient37505"
     id="linearGradient39465"
     gradientUnits="userSpaceOnUse"
     x1="173.5024"
     y1="260.80282"
     x2="330.00316"
     y2="260.80282" /><linearGradient
     inkscape:collect="always"
     xlink:href="#linearGradient38239"
     id="linearGradient39467"
     gradientUnits="userSpaceOnUse"
     x1="170.96491"
     y1="260.80274"
     x2="332.54059"
     y2="260.80274" /><linearGradient
     inkscape:collect="always"
     xlink:href="#linearGradient37505"
     id="linearGradient39469"
     gradientUnits="userSpaceOnUse"
     x1="173.5024"
     y1="260.80282"
     x2="330.00316"
     y2="260.80282" /><linearGradient
     inkscape:collect="always"
     xlink:href="#linearGradient39859"
     id="linearGradient39861"
     x1="233.27571"
     y1="144.9558"
     x2="353.21696"
     y2="144.9558"
     gradientUnits="userSpaceOnUse"
     gradientTransform="matrix(1.0412042,0,0,1.0412042,-11.994832,-6.6048488)" /><linearGradient
     inkscape:collect="always"
     xlink:href="#linearGradient39911"
     id="linearGradient39913"
     x1="231.45142"
     y1="144.32414"
     x2="355.21755"
     y2="144.32414"
     gradientUnits="userSpaceOnUse" /><linearGradient
     inkscape:collect="always"
     xlink:href="#linearGradient39859"
     id="linearGradient40048"
     gradientUnits="userSpaceOnUse"
     gradientTransform="matrix(0.89629763,0.0238779,0.0238779,0.89525919,35.036968,15.021204)"
     x1="233.27571"
     y1="144.9558"
     x2="353.21696"
     y2="144.9558" /><linearGradient
     inkscape:collect="always"
     xlink:href="#linearGradient39911"
     id="linearGradient40050"
     gradientUnits="userSpaceOnUse"
     x1="231.45142"
     y1="144.32414"
     x2="355.21755"
     y2="144.32414"
     gradientTransform="matrix(0.8608279,0.02293297,0.02293296,0.85983056,45.513923,20.975332)" /><radialGradient
     inkscape:collect="always"
     xlink:href="#linearGradient37505"
     id="radialGradient40070"
     cx="168.52339"
     cy="176.68953"
     fx="168.52339"
     fy="176.68953"
     r="63.817516"
     gradientTransform="matrix(1,0,0,1.0138535,0,-2.4477662)"
     gradientUnits="userSpaceOnUse" /><linearGradient
     inkscape:collect="always"
     xlink:href="#linearGradient40098"
     id="linearGradient40084"
     gradientUnits="userSpaceOnUse"
     x1="170.96491"
     y1="260.80274"
     x2="332.54059"
     y2="260.80274"
     gradientTransform="matrix(1.5528874,-0.01036787,-0.01036787,1.5533382,-135.64229,-143.05141)" /><radialGradient
     inkscape:collect="always"
     xlink:href="#linearGradient37505"
     id="radialGradient40086"
     gradientUnits="userSpaceOnUse"
     gradientTransform="matrix(1.5528874,-0.01036787,-0.01051151,1.5748574,-135.61691,-146.85362)"
     cx="168.52339"
     cy="176.68953"
     fx="168.52339"
     fy="176.68953"
     r="63.817516" /><linearGradient
     inkscape:collect="always"
     xlink:href="#linearGradient40098"
     id="linearGradient40577"
     gradientUnits="userSpaceOnUse"
     gradientTransform="matrix(-0.02339358,-1.5527458,-1.5527457,0.04413422,659.7634,642.01397)"
     x1="170.96491"
     y1="260.80274"
     x2="332.54059"
     y2="260.80274" /><radialGradient
     inkscape:collect="always"
     xlink:href="#linearGradient37505"
     id="radialGradient40579"
     gradientUnits="userSpaceOnUse"
     gradientTransform="matrix(-0.02339358,-1.5527458,-1.5742567,0.04474565,663.56416,641.90594)"
     cx="168.52339"
     cy="176.68953"
     fx="168.52339"
     fy="176.68953"
     r="63.817516" /></defs><sodipodi:namedview
   id="namedview8993"
   pagecolor="#ffffff"
   bordercolor="#000000"
   borderopacity="0.25"
   inkscape:showpageshadow="2"
   inkscape:pageopacity="0.0"
   inkscape:pagecheckerboard="0"
   inkscape:deskcolor="#d1d1d1"
   showgrid="false"
   inkscape:zoom="0.080234375"
   inkscape:cx="-1028.2376"
   inkscape:cy="-3377.6047"
   inkscape:window-width="2229"
   inkscape:window-height="1778"
   inkscape:window-x="1484"
   inkscape:window-y="72"
   inkscape:window-maximized="0"
   inkscape:current-layer="layer14"
   showguides="true"><sodipodi:guide
     position="61.320351,325.04771"
     orientation="1,0"
     id="guide40553"
     inkscape:locked="false" /><sodipodi:guide
     position="450.18111,324.05063"
     orientation="0,-1"
     id="guide40555"
     inkscape:locked="false" /></sodipodi:namedview>
<style
   type="text/css"
   id="style8966">
	.st0{fill:#000000;}
</style>
<g
   inkscape:groupmode="layer"
   id="layer14"
   inkscape:label="bg"
   style="display:inline;fill:#000000"><rect
     style="display:inline;opacity:1;fill:#1a1a1a;fill-opacity:1;fill-rule:evenodd;stroke:none;stroke-width:0;stroke-linecap:round;stroke-linejoin:bevel;stroke-miterlimit:3.2;stroke-dasharray:none;stroke-opacity:0.714497;paint-order:stroke fill markers"
     id="rect37073"
     width="511.85992"
     height="509.03976"
     x="0"
     y="0.70504117" /></g>
<g
   inkscape:groupmode="layer"
   id="layer15"
   inkscape:label="turtle"
   transform="rotate(135.62284,245.66412,285.20452)"
   inkscape:transform-center-x="-0.013802994"
   inkscape:transform-center-y="-53.382474"><g
     inkscape:groupmode="layer"
     id="layer11"
     inkscape:label="head"
     style="font-variation-settings:normal;display:inline;opacity:1;fill:url(#linearGradient39411);fill-opacity:1;stroke:url(#linearGradient39413);stroke-width:3.2;stroke-linecap:butt;stroke-linejoin:miter;stroke-miterlimit:4;stroke-dasharray:none;stroke-dashoffset:0;stroke-opacity:1;stop-color:#000000;stop-opacity:1"><path
       class="st0"
       d="m 267.48,360.934 -0.876,-3.101 c -1.488,-5.268 -5.656,-9.427 -10.915,-10.916 l -56.048,-15.918 c -3.324,-0.942 -6.772,-0.719 -9.807,0.513 l -6.227,-2.944 -2.737,-4.3 c 1.704,-3.291 2.142,-7.211 1.067,-10.973 l -15.918,-56.048 c -1.488,-5.268 -5.648,-9.419 -10.907,-10.916 l -3.118,-0.876 -40.849,-11.61 c -2.729,-0.769 -5.606,-0.389 -7.972,1.058 -2.34,1.447 -3.944,3.821 -4.44,6.566 0,0 -3.754,13.768 -4.49,25.493 -1.041,16.646 0.513,32.523 3.722,47.068 -17.316,14.091 -33.978,35.69 -42.966,68.733 1.331,3.787 47.912,-32.522 47.912,-32.522 0,0 -36.699,31.563 -54.138,82.368 11.089,-5.97 58.827,-45.992 58.827,-45.992 0,0 -4.119,34.887 -73.199,70.618 28.859,4.49 61.134,-4.68 89.034,-37.723 -5.83,16.108 -27.379,53.054 -27.379,53.054 0,0 51.823,-26.164 71.073,-55.676 -1.033,8.724 -31.24,49.209 -31.24,49.209 0,0 41.883,-25.419 64.566,-50.805 14.124,2.993 29.471,4.399 45.529,3.407 11.718,-0.737 25.486,-4.499 25.486,-4.499 2.754,-0.488 5.127,-2.1 6.574,-4.449 1.447,-2.365 1.827,-5.226 1.05,-7.963 z"
       id="path8978"
       style="font-variation-settings:normal;fill:url(#linearGradient39407);fill-opacity:1;stroke:url(#linearGradient39409);stroke-width:3.2;stroke-linecap:butt;stroke-linejoin:miter;stroke-miterlimit:4;stroke-dasharray:none;stroke-dashoffset:0;stroke-opacity:1;stop-color:#000000;stop-opacity:1" /></g><g
     inkscape:groupmode="layer"
     id="layer12"
     inkscape:label="center-top-right"
     style="font-variation-settings:normal;display:inline;opacity:1;vector-effect:none;fill:url(#linearGradient39419);fill-opacity:1;stroke:url(#linearGradient39421);stroke-width:6.08;stroke-linecap:butt;stroke-linejoin:miter;stroke-miterlimit:4;stroke-dasharray:none;stroke-dashoffset:0;stroke-opacity:1;-inkscape-stroke:none;stop-color:#000000;stop-opacity:1"><path
       class="st0"
       d="m 385.273,152.618 c -1.645,-2.712 -4.415,-4.564 -7.524,-5.011 -3.101,-0.438 -6.186,0.571 -8.352,2.738 l -43.785,43.785 c -3.771,3.754 -5.16,9.32 -3.672,14.578 l 15.935,56.04 c 1.488,5.251 5.648,9.41 10.907,10.899 l 46.546,13.23 c 2.696,0.777 5.549,0.397 7.889,-1.008 2.34,-1.414 3.96,-3.754 4.482,-6.45 0,0 5.086,-17.018 5.854,-30.381 1.496,-26.138 -3.581,-51.004 -12.379,-72.09 -6.11,-14.637 -15.901,-26.33 -15.901,-26.33 z"
       id="path8974"
       style="font-variation-settings:normal;display:inline;opacity:1;vector-effect:none;fill:#62219c;fill-opacity:0.439216;stroke:#a564de;stroke-width:1.28;stroke-linecap:butt;stroke-linejoin:miter;stroke-miterlimit:4;stroke-dasharray:none;stroke-dashoffset:0;stroke-opacity:0.439216;-inkscape-stroke:none;stop-color:#000000;stop-opacity:1"
       inkscape:label="plate" /><path
       class="st0"
       d="m 380.66766,161.03641 c -1.47826,-2.36959 -3.90522,-4.02552 -6.59179,-4.48116 -2.67947,-0.44772 -5.31198,0.3491 -7.12685,2.16268 l -36.68722,36.64355 c -3.16009,3.14133 -4.22815,7.89529 -2.82665,12.45041 l 15.00245,48.55033 c 1.40134,4.54911 5.07776,8.22054 9.639,9.62144 l 40.37151,12.44299 c 2.3386,0.72991 4.78583,0.46861 6.76795,-0.68579 1.98191,-1.16214 3.32279,-3.13699 3.71031,-5.44312 0,0 3.9879,-14.51596 4.34256,-25.98827 0.68837,-22.43995 -4.2523,-43.93691 -12.30943,-62.26907 -5.59532,-12.72546 -14.29184,-23.00399 -14.29184,-23.00399 z"
       id="path40003"
       style="font-variation-settings:normal;display:inline;opacity:1;vector-effect:none;fill:url(#linearGradient40048);fill-opacity:1;stroke:url(#linearGradient40050);stroke-width:5.50416;stroke-linecap:butt;stroke-linejoin:miter;stroke-miterlimit:4;stroke-dasharray:66.0498, 66.0498;stroke-dashoffset:0;stroke-opacity:0.439216;-inkscape-stroke:none;stop-color:#000000;stop-opacity:1"
       inkscape:label="armor" /></g><g
     inkscape:groupmode="layer"
     id="layer13"
     inkscape:label="center-top-left"
     style="font-variation-settings:normal;display:inline;opacity:1;vector-effect:none;fill:#62219c;fill-opacity:0.439216;stroke:#a564de;stroke-width:1.28;stroke-linecap:butt;stroke-linejoin:miter;stroke-miterlimit:4;stroke-dasharray:none;stroke-dashoffset:0;stroke-opacity:0.439216;-inkscape-stroke:none;stop-color:#000000;stop-opacity:1"><path
       class="st0"
       d="m 261.906,99.39 c -13.38,0.76 -30.381,5.846 -30.381,5.846 -2.704,0.521 -5.036,2.15 -6.45,4.482 -1.414,2.349 -1.794,5.202 -1.017,7.889 l 13.23,46.555 c 1.496,5.251 5.656,9.41 10.907,10.907 l 56.031,15.926 c 5.268,1.496 10.825,0.107 14.587,-3.664 l 43.777,-43.777 c 2.167,-2.174 3.175,-5.259 2.729,-8.368 -0.438,-3.109 -2.29,-5.879 -5.002,-7.517 0,0 -11.693,-9.79 -26.329,-15.91 C 312.894,102.97 288.045,97.877 261.906,99.39 Z"
       id="path8970"
       style="font-variation-settings:normal;vector-effect:none;fill:#62219c;fill-opacity:0.439216;stroke:#a564de;stroke-width:1.28;stroke-linecap:butt;stroke-linejoin:miter;stroke-miterlimit:4;stroke-dasharray:none;stroke-dashoffset:0;stroke-opacity:0.439216;-inkscape-stroke:none;stop-color:#000000;stop-opacity:1"
       inkscape:label="plate" /><path
       class="st0"
       d="m 264.84097,104.19311 c -11.68159,0.66353 -26.52454,5.10392 -26.52454,5.10392 -2.36075,0.45487 -4.39674,1.87708 -5.63124,3.91306 -1.23452,2.05083 -1.56629,4.54168 -0.88791,6.8876 l 11.55062,40.64546 c 1.3061,4.58444 4.93804,8.21552 9.5225,9.52249 l 48.91858,13.9044 c 4.59931,1.3061 9.45092,0.0934 12.73538,-3.1989 l 38.22008,-38.22008 c 1.89193,-1.89805 2.77197,-4.59144 2.38258,-7.30579 -0.3824,-2.71436 -1.99931,-5.13274 -4.36706,-6.56281 0,0 -10.20872,-8.54729 -22.98687,-13.89044 -18.41639,-7.67334 -40.11113,-12.11985 -62.93212,-10.79891 z"
       id="path34114"
       style="font-variation-settings:normal;display:inline;fill:url(#linearGradient39861);fill-opacity:1;stroke:url(#linearGradient39913);stroke-width:6.4;stroke-linecap:butt;stroke-linejoin:miter;stroke-miterlimit:4;stroke-dasharray:76.8, 76.8;stroke-dashoffset:0;stroke-opacity:0.439216;stop-color:#000000;stop-opacity:1"
       inkscape:label="armor" /></g><g
     inkscape:groupmode="layer"
     id="layer3"
     inkscape:label="center"
     style="display:inline;stroke:#9d0cb3;stroke-width:6.08;stroke-dasharray:none;stroke-opacity:1"
     sodipodi:insensitive="true"><path
       class="st0"
       d="m 302.086,199.57 -56.04,-15.926 c -5.259,-1.497 -10.816,-0.099 -14.587,3.655 l -53.204,53.212 c -3.762,3.762 -5.16,9.32 -3.663,14.587 l 15.918,56.039 c 1.488,5.259 5.648,9.427 10.906,10.907 l 56.049,15.918 c 5.251,1.497 10.808,0.099 14.579,-3.672 l 53.203,-53.204 c 3.762,-3.762 5.16,-9.311 3.672,-14.57 l -15.926,-56.04 c -1.505,-5.25 -5.656,-9.417 -10.907,-10.906 z"
       id="path8968"
       style="display:inline;fill:url(#radialGradient38580);fill-opacity:1;stroke:#5b0ba0;stroke-width:6.08;stroke-dasharray:none;stroke-opacity:0.546142"
       inkscape:label="path8968" /><path
       class="st0"
       d="m 295.67226,207.2615 -49.4694,-14.05871 c -4.64239,-1.32147 -9.54784,-0.0873 -12.8767,3.22646 l -46.96591,46.97298 c -3.32091,3.32091 -4.555,8.22724 -3.23352,12.87669 l 14.05164,49.46852 c 1.31353,4.64239 4.98577,8.3217 9.62728,9.62817 l 49.47735,14.05164 c 4.63533,1.32149 9.54078,0.0874 12.86963,-3.24146 l 46.96503,-46.96591 c 3.32091,-3.32091 4.55499,-8.21931 3.24146,-12.86169 l -14.05869,-49.46941 c -1.32854,-4.63444 -4.99285,-8.31286 -9.62817,-9.62728 z"
       id="path38588"
       style="display:inline;fill:#62219c;fill-opacity:0.439216;stroke:#a564de;stroke-width:1.28;stroke-dasharray:none;stroke-opacity:0.439216"
       inkscape:label="path8968" /></g><g
     inkscape:groupmode="layer"
     id="layer4"
     inkscape:label="center-left"
     style="display:inline"><path
       class="st0"
       d="m 115.41,225.883 41.85,11.882 c 5.268,1.496 10.816,0.099 14.587,-3.663 l 53.211,-53.204 c 3.754,-3.77 5.152,-9.328 3.656,-14.587 L 226.606,158.919 216.31,122.7 c -0.852,-3.018 -3.026,-5.507 -5.879,-6.781 -2.87,-1.273 -6.103,-1.182 -8.806,0.248 0,0 -11.214,4.441 -21.913,11.594 -11.288,7.558 -22.186,16.58 -32.614,27.006 -10.187,10.188 -18.961,20.962 -26.27,32.267 -7.31,11.303 -12.065,24.386 -12.065,24.386 -1.332,2.687 -1.356,5.888 -0.067,8.69 1.29,2.804 3.762,4.929 6.714,5.773 z"
       id="path8972"
       style="font-variation-settings:normal;opacity:1;vector-effect:none;fill:url(#linearGradient39435);fill-opacity:1;stroke:url(#radialGradient40070);stroke-width:6.08;stroke-linecap:butt;stroke-linejoin:miter;stroke-miterlimit:4;stroke-dasharray:none;stroke-dashoffset:0;stroke-opacity:1;-inkscape-stroke:none;stop-color:#000000;stop-opacity:1"
       inkscape:label="plate" /><path
       class="st0"
       d="m 41.234558,206.62481 64.865142,18.02286 c 8.16511,2.26918 16.79501,0.0417 22.68995,-5.84111 l 83.1823,-83.19549 c 5.86862,-5.89501 8.09719,-14.54295 5.82859,-22.69645 l -3.19685,-11.46043 -15.613,-56.153663 c -1.29178,-4.679151 -4.64195,-8.522877 -9.05913,-10.472248 -4.44358,-1.947643 -9.46502,-1.77277 -13.67729,0.476527 0,0 -17.46013,7.01465 -34.14863,18.23662 -17.60736,11.857181 -34.62426,25.9844 -50.92586,42.287628 C 75.254889,111.7601 61.518167,128.58673 50.050905,146.223 c -11.46882,17.63317 -18.988457,38.00479 -18.988457,38.00479 -2.096308,4.18763 -2.166765,9.16011 -0.194141,13.49921 1.974153,4.34218 5.790869,7.61739 10.366251,8.89781 z"
       id="path40574"
       style="font-variation-settings:normal;opacity:1;vector-effect:none;fill:url(#linearGradient40084);fill-opacity:1;stroke:url(#radialGradient40086);stroke-width:9.44272;stroke-linecap:butt;stroke-linejoin:miter;stroke-miterlimit:4;stroke-dasharray:none;stroke-dashoffset:0;stroke-opacity:1;-inkscape-stroke:none;stop-color:#000000;stop-opacity:1"
       inkscape:label="armor" /></g><g
     inkscape:groupmode="layer"
     id="layer5"
     inkscape:label="center-right"
     style="display:inline"><path
       class="st0"
       d="m 390.243,296.617 -36.227,-10.288 -7.384,-2.1 c -5.268,-1.505 -10.817,-0.099 -14.579,3.654 l -53.212,53.212 c -3.762,3.763 -5.16,9.32 -3.663,14.579 l 11.883,41.858 c 0.843,2.96 2.968,5.416 5.771,6.706 2.804,1.299 5.996,1.266 8.691,-0.058 0,0 13.074,-4.763 24.386,-12.073 11.296,-7.31 22.07,-16.084 32.266,-26.279 10.428,-10.42 19.449,-21.318 27.008,-32.613 7.161,-10.684 11.593,-21.913 11.593,-21.913 1.431,-2.688 1.513,-5.938 0.24,-8.79 -1.266,-2.869 -3.763,-5.036 -6.773,-5.895 z"
       id="path8976"
       style="font-variation-settings:normal;opacity:1;vector-effect:none;fill:url(#linearGradient39439);fill-opacity:1;stroke:url(#linearGradient39441);stroke-width:6.08;stroke-linecap:butt;stroke-linejoin:miter;stroke-miterlimit:4;stroke-dasharray:none;stroke-dashoffset:0;stroke-opacity:1;-inkscape-stroke:none;stop-color:#000000;stop-opacity:1" /><path
       class="st0"
       d="m 306.3246,472.78072 -19.42873,-64.45801 c -2.44615,-8.11385 -0.40681,-16.79014 5.34646,-22.81157 l 81.36749,-84.97128 c 5.76603,-5.99539 14.36348,-8.41143 22.56437,-6.32062 l 11.52722,2.94695 56.47981,14.38856 c 4.70612,1.18975 8.62177,4.45557 10.66671,8.82933 2.04378,4.40018 1.97812,9.42424 -0.17908,13.68441 0,0 -6.63342,17.6085 -17.48993,34.53702 -11.47161,17.86097 -25.22555,35.18097 -41.17053,51.83314 -15.58108,16.26746 -32.1051,30.36674 -49.48791,42.2147 -17.37968,11.84944 -37.58301,19.81017 -37.58301,19.81017 -4.14107,2.18685 -9.11084,2.36539 -13.4918,0.48756 -4.38407,-1.87929 -7.74148,-5.6239 -9.12107,-10.17036 z"
       id="path40072"
       style="font-variation-settings:normal;display:inline;opacity:1;vector-effect:none;fill:url(#linearGradient40577);fill-opacity:1;stroke:url(#radialGradient40579);stroke-width:9.44272;stroke-linecap:butt;stroke-linejoin:miter;stroke-miterlimit:4;stroke-dasharray:none;stroke-dashoffset:0;stroke-opacity:1;-inkscape-stroke:none;stop-color:#000000;stop-opacity:1"
       inkscape:label="armor" /></g><g
     inkscape:groupmode="layer"
     id="layer6"
     inkscape:label="footer-right"
     style="font-variation-settings:normal;display:inline;opacity:1;vector-effect:none;fill:url(#linearGradient39447);fill-opacity:1;stroke:url(#linearGradient39449);stroke-width:6.08;stroke-linecap:butt;stroke-linejoin:miter;stroke-miterlimit:4;stroke-dasharray:none;stroke-dashoffset:0;stroke-opacity:1;-inkscape-stroke:none;stop-color:#000000;stop-opacity:1"><path
       class="st0"
       d="m 249.809,426.855 c 0,0 -26.941,6.418 -46.192,0 l -16,64.012 c -1.381,5.549 0.405,11.42 4.68,15.224 4.258,3.828 10.286,4.978 15.653,2.976 l 31.786,-11.758 c 6.054,-2.25 17.771,-16.572 15.2,-31.969 z"
       id="path8988"
       style="font-variation-settings:normal;vector-effect:none;fill:url(#linearGradient39443);fill-opacity:1;stroke:url(#linearGradient39445);stroke-width:6.08;stroke-linecap:butt;stroke-linejoin:miter;stroke-miterlimit:4;stroke-dasharray:none;stroke-dashoffset:0;stroke-opacity:1;-inkscape-stroke:none;stop-color:#000000;stop-opacity:1" /></g><g
     inkscape:groupmode="layer"
     id="layer7"
     inkscape:label="foot-left"
     style="font-variation-settings:normal;display:inline;opacity:1;vector-effect:none;fill:url(#linearGradient39455);fill-opacity:1;stroke:url(#linearGradient39457);stroke-width:6.08;stroke-linecap:butt;stroke-linejoin:miter;stroke-miterlimit:4;stroke-dasharray:none;stroke-dashoffset:0;stroke-opacity:1;-inkscape-stroke:none;stop-color:#000000;stop-opacity:1"><path
       class="st0"
       d="m 83.169,260.216 -38.476,-5.118 c -15.398,-2.572 -29.728,9.145 -31.961,15.198 L 0.966,302.083 c -1.994,5.367 -0.852,11.395 2.968,15.653 3.812,4.267 9.683,6.07 15.232,4.681 l 64.003,-16.001 c -6.408,-19.251 0,-46.2 0,-46.2 z"
       id="path8986"
       style="font-variation-settings:normal;vector-effect:none;fill:url(#linearGradient39451);fill-opacity:1;stroke:url(#linearGradient39453);stroke-width:6.08;stroke-linecap:butt;stroke-linejoin:miter;stroke-miterlimit:4;stroke-dasharray:none;stroke-dashoffset:0;stroke-opacity:1;-inkscape-stroke:none;stop-color:#000000;stop-opacity:1" /></g><g
     inkscape:groupmode="layer"
     id="layer8"
     inkscape:label="fin-right"
     style="font-variation-settings:normal;display:none;opacity:1;vector-effect:none;fill:url(#linearGradient39463);fill-opacity:1;stroke:url(#linearGradient39465);stroke-width:6.08;stroke-linecap:butt;stroke-linejoin:miter;stroke-miterlimit:4;stroke-dasharray:none;stroke-dashoffset:0;stroke-opacity:1;-inkscape-stroke:none;stop-color:#000000;stop-opacity:1"><path
       class="st0"
       d="m 465.848,222.84 -42.198,-9.154 c 0,0 9.236,30.712 -3.159,66.624 13.322,1.53 32.482,8.84 32.482,8.84 l 19.209,67.369 c 1.638,5.738 6.988,9.601 12.966,9.344 5.978,-0.248 11.039,-4.548 12.28,-10.418 l 13.288,-63.111 c 6.674,-31.671 -13.322,-62.656 -44.868,-69.494 z"
       id="path8984"
       style="font-variation-settings:normal;vector-effect:none;fill:url(#linearGradient39459);fill-opacity:1;stroke:url(#linearGradient39461);stroke-width:6.08;stroke-linecap:butt;stroke-linejoin:miter;stroke-miterlimit:4;stroke-dasharray:none;stroke-dashoffset:0;stroke-opacity:1;-inkscape-stroke:none;stop-color:#000000;stop-opacity:1" /></g><g
     inkscape:groupmode="layer"
     id="layer9"
     inkscape:label="ear-left"
     style="font-variation-settings:normal;display:none;opacity:1;vector-effect:none;fill:url(#linearGradient38241);fill-opacity:1;stroke:url(#linearGradient37507);stroke-width:6.08;stroke-linecap:butt;stroke-linejoin:miter;stroke-miterlimit:4;stroke-dasharray:none;stroke-dashoffset:0;stroke-opacity:1;-inkscape-stroke:none;stop-color:#000000;stop-opacity:1"><path
       class="st0"
       d="m 157.459,41.787 67.36,19.209 c 0,0 7.31,19.16 8.84,32.482 35.913,-12.387 66.624,-3.159 66.624,-3.159 L 291.129,48.113 C 284.282,16.575 253.315,-3.42 221.635,3.245 l -63.118,13.296 c -5.871,1.241 -10.163,6.302 -10.411,12.28 -0.248,5.979 3.606,11.337 9.353,12.966 z"
       id="path8982"
       style="font-variation-settings:normal;vector-effect:none;fill:url(#linearGradient39467);fill-opacity:1;stroke:url(#linearGradient39469);stroke-width:6.08;stroke-linecap:butt;stroke-linejoin:miter;stroke-miterlimit:4;stroke-dasharray:none;stroke-dashoffset:0;stroke-opacity:1;-inkscape-stroke:none;stop-color:#000000;stop-opacity:1"
       inkscape:label="path8982" /></g></g></svg>
