<?xml version="1.0" encoding="UTF-8" standalone="no"?>
<!-- Created with Inkscape (http://www.inkscape.org/) -->

<svg
   width="512"
   height="512"
   viewBox="0 0 135.46666 135.46667"
   version="1.1"
   id="svg5"
   inkscape:version="1.2.2 (732a01da63, 2022-12-09)"
   sodipodi:docname="coforge-c1.svg"
   xml:space="preserve"
   inkscape:export-filename="coforge-logo-base.png"
   inkscape:export-xdpi="48.463261"
   inkscape:export-ydpi="48.463261"
   xmlns:inkscape="http://www.inkscape.org/namespaces/inkscape"
   xmlns:sodipodi="http://sodipodi.sourceforge.net/DTD/sodipodi-0.dtd"
   xmlns:xlink="http://www.w3.org/1999/xlink"
   xmlns="http://www.w3.org/2000/svg"
   xmlns:svg="http://www.w3.org/2000/svg"><sodipodi:namedview
     id="namedview7"
     pagecolor="#343434"
     bordercolor="#000000"
     borderopacity="0.25"
     inkscape:showpageshadow="2"
     inkscape:pageopacity="0"
     inkscape:pagecheckerboard="0"
     inkscape:deskcolor="#525252"
     inkscape:document-units="mm"
     showgrid="false"
     inkscape:zoom="0.64693624"
     inkscape:cx="381.02673"
     inkscape:cy="293.692"
     inkscape:window-width="2330"
     inkscape:window-height="1610"
     inkscape:window-x="3070"
     inkscape:window-y="361"
     inkscape:window-maximized="0"
     inkscape:current-layer="svg5"><inkscape:grid
       type="xygrid"
       id="grid7005" /></sodipodi:namedview><defs
     id="defs2"><linearGradient
       inkscape:collect="always"
       id="linearGradient72789"><stop
         style="stop-color:#28d76e;stop-opacity:1;"
         offset="0"
         id="stop72785" /><stop
         style="stop-color:#28d76e;stop-opacity:0;"
         offset="1"
         id="stop72787" /></linearGradient><linearGradient
       inkscape:collect="always"
       id="linearGradient72771"><stop
         style="stop-color:#6034f2;stop-opacity:1;"
         offset="0"
         id="stop72767" /><stop
         style="stop-color:#dbc9c9;stop-opacity:0;"
         offset="1"
         id="stop72769" /></linearGradient><linearGradient
       inkscape:collect="always"
       id="linearGradient72059"><stop
         style="stop-color:#ffffff;stop-opacity:1;"
         offset="0"
         id="stop72055" /><stop
         style="stop-color:#ea6666;stop-opacity:0;"
         offset="1"
         id="stop72057" /></linearGradient><linearGradient
       inkscape:collect="always"
       id="linearGradient72029"><stop
         style="stop-color:#ea6666;stop-opacity:1;"
         offset="0"
         id="stop72025" /><stop
         style="stop-color:#ea6666;stop-opacity:0;"
         offset="1"
         id="stop72027" /></linearGradient><linearGradient
       inkscape:collect="always"
       id="linearGradient62083"><stop
         style="stop-color:#272727;stop-opacity:1;"
         offset="0"
         id="stop62079" /><stop
         style="stop-color:#d35959;stop-opacity:0;"
         offset="1"
         id="stop62081" /></linearGradient><linearGradient
       id="linearGradient60143"
       inkscape:swatch="solid"><stop
         style="stop-color:#156f5c;stop-opacity:1;"
         offset="0"
         id="stop60141" /></linearGradient><linearGradient
       inkscape:collect="always"
       id="linearGradient55829"><stop
         style="stop-color:#39d59d;stop-opacity:1;"
         offset="0"
         id="stop55825" /><stop
         style="stop-color:#156f5c;stop-opacity:0;"
         offset="1"
         id="stop55827" /></linearGradient><linearGradient
       inkscape:collect="always"
       id="linearGradient54951"><stop
         style="stop-color:#ffffff;stop-opacity:1;"
         offset="0"
         id="stop54947" /><stop
         style="stop-color:#ffffff;stop-opacity:0;"
         offset="1"
         id="stop54949" /></linearGradient><linearGradient
       inkscape:collect="always"
       id="linearGradient53053"><stop
         style="stop-color:#4b1473;stop-opacity:1;"
         offset="0"
         id="stop53049" /><stop
         style="stop-color:#4b1473;stop-opacity:0;"
         offset="1"
         id="stop53051" /></linearGradient><inkscape:perspective
       sodipodi:type="inkscape:persp3d"
       inkscape:vp_x="-22.084864 : 28.266861 : 1"
       inkscape:vp_y="0 : 1000 : 0"
       inkscape:vp_z="113.3818 : 28.266861 : 1"
       inkscape:persp3d-origin="45.648465 : 5.689083 : 1"
       id="perspective9969" /><linearGradient
       id="linearGradient1805"
       inkscape:swatch="solid"><stop
         style="stop-color:#000000;stop-opacity:1;"
         offset="0"
         id="stop1803" /></linearGradient><linearGradient
       id="linearGradient26338"
       inkscape:swatch="solid"><stop
         style="stop-color:#3134ff;stop-opacity:1;"
         offset="0"
         id="stop26336" /></linearGradient><linearGradient
       id="a"
       x1="23.325"
       y1="-118.543"
       x2="7.26"
       y2="-104.193"
       gradientTransform="matrix(1, 0, 0, -1, 0, -96)"
       gradientUnits="userSpaceOnUse"><stop
         offset="0"
         stop-color="#5391fe"
         id="stop2093" /><stop
         offset="1"
         stop-color="#3e6dbf"
         id="stop2095" /></linearGradient><linearGradient
       id="b"
       x1="7.1"
       y1="-104.002"
       x2="23.001"
       y2="-118.292"
       xlink:href="#a" /><inkscape:perspective
       sodipodi:type="inkscape:persp3d"
       inkscape:vp_x="177.31719 : 15.579845 : 1"
       inkscape:vp_y="0 : 976.31087 : 0"
       inkscape:vp_z="-16.328893 : 15.579845 : 1"
       inkscape:persp3d-origin="80.494142 : -6.4631078 : 1"
       id="perspective9969-0" /><radialGradient
       inkscape:collect="always"
       xlink:href="#linearGradient53053"
       id="radialGradient53151"
       cx="68.104675"
       cy="67.381691"
       fx="68.104675"
       fy="67.381691"
       r="64.188416"
       gradientUnits="userSpaceOnUse" /><filter
       inkscape:collect="always"
       style="color-interpolation-filters:sRGB"
       id="filter53298"
       x="-0.011994515"
       y="-0.011994515"
       width="1.023989"
       height="1.023989"><feGaussianBlur
         inkscape:collect="always"
         stdDeviation="0.069575046"
         id="feGaussianBlur53300" /></filter><filter
       inkscape:collect="always"
       style="color-interpolation-filters:sRGB"
       id="filter54943"
       x="-0.014363352"
       y="-0.014363352"
       width="1.0287267"
       height="1.0287267"><feGaussianBlur
         inkscape:collect="always"
         stdDeviation="1.3237575"
         id="feGaussianBlur54945" /></filter><radialGradient
       inkscape:collect="always"
       xlink:href="#linearGradient54951"
       id="radialGradient54973"
       cx="128"
       cy="128"
       fx="128"
       fy="128"
       r="131.17702"
       gradientUnits="userSpaceOnUse" /><linearGradient
       inkscape:collect="always"
       xlink:href="#linearGradient55829"
       id="linearGradient55859"
       x1="-3.6770182"
       y1="128"
       x2="259.67703"
       y2="128"
       gradientUnits="userSpaceOnUse" /><filter
       inkscape:collect="always"
       style="color-interpolation-filters:sRGB"
       id="filter56367"
       x="-0.0027401404"
       y="-0.014484356"
       width="1.0172914"
       height="1.0172119"><feGaussianBlur
         inkscape:collect="always"
         stdDeviation="0.027845215"
         id="feGaussianBlur56369" /></filter><radialGradient
       inkscape:collect="always"
       xlink:href="#linearGradient62083"
       id="radialGradient62085"
       cx="132.03485"
       cy="128"
       fx="132.03485"
       fy="128"
       r="106.76407"
       gradientTransform="matrix(1,0,0,0.96220782,0,4.837399)"
       gradientUnits="userSpaceOnUse" /><linearGradient
       inkscape:collect="always"
       xlink:href="#linearGradient55829"
       id="linearGradient66083"
       gradientUnits="userSpaceOnUse"
       x1="-3.6770182"
       y1="128"
       x2="259.67703"
       y2="128" /><filter
       inkscape:collect="always"
       style="color-interpolation-filters:sRGB"
       id="filter66147"
       x="-0.030278831"
       y="-0.031408982"
       width="1.0616799"
       height="1.0624282"><feGaussianBlur
         inkscape:collect="always"
         stdDeviation="1.2146013"
         id="feGaussianBlur66149" /></filter><filter
       inkscape:collect="always"
       style="color-interpolation-filters:sRGB"
       id="filter66155"
       x="-0.014540485"
       y="-0.014540485"
       width="1.029081"
       height="1.029081"><feGaussianBlur
         inkscape:collect="always"
         stdDeviation="1.0159675"
         id="feGaussianBlur66157" /></filter><filter
       inkscape:collect="always"
       style="color-interpolation-filters:sRGB"
       id="filter71987"
       x="-0.027227811"
       y="-0.026576865"
       width="1.0544556"
       height="1.0531537"><feGaussianBlur
         inkscape:collect="always"
         stdDeviation="0.6980616"
         id="feGaussianBlur71989" /></filter><filter
       inkscape:collect="always"
       style="color-interpolation-filters:sRGB"
       id="filter72021"
       x="-0.064063956"
       y="-0.031144463"
       width="1.0963737"
       height="1.0622961"><feGaussianBlur
         inkscape:collect="always"
         stdDeviation="0.22365804"
         id="feGaussianBlur72023" /></filter><linearGradient
       inkscape:collect="always"
       xlink:href="#linearGradient72029"
       id="linearGradient72031"
       x1="34.441215"
       y1="63.698478"
       x2="97.045527"
       y2="63.698478"
       gradientUnits="userSpaceOnUse" /><linearGradient
       inkscape:collect="always"
       xlink:href="#linearGradient72059"
       id="linearGradient72061"
       x1="35.431861"
       y1="63.391939"
       x2="96.962617"
       y2="63.391939"
       gradientUnits="userSpaceOnUse" /><filter
       inkscape:collect="always"
       style="color-interpolation-filters:sRGB"
       id="filter72063"
       x="-0.30726508"
       y="-0.29484738"
       width="1.6093421"
       height="1.5896948"><feGaussianBlur
         inkscape:collect="always"
         stdDeviation="7.6483491"
         id="feGaussianBlur72065" /></filter><radialGradient
       inkscape:collect="always"
       xlink:href="#linearGradient72771"
       id="radialGradient72775"
       cx="66.037628"
       cy="63.391941"
       fx="66.037628"
       fy="63.391941"
       r="31.223246"
       gradientTransform="matrix(1,0,0,1.0190063,0,-1.2048446)"
       gradientUnits="userSpaceOnUse" /><linearGradient
       inkscape:collect="always"
       xlink:href="#linearGradient72789"
       id="linearGradient72795"
       x1="3.8909836"
       y1="67.430717"
       x2="132.34309"
       y2="67.430717"
       gradientUnits="userSpaceOnUse" /><meshgradient
       inkscape:collect="always"
       id="meshgradient72805"
       gradientUnits="userSpaceOnUse"
       x="35.431862"
       y="31.873026"><meshrow
         id="meshrow72807"><meshpatch
           id="meshpatch72809"><stop
             path="c 20.5103,0  41.0205,0  61.5308,0"
             style="stop-color:#ffffff;stop-opacity:1"
             id="stop72811" /><stop
             path="c 0,21.0126  0,42.0252  0,63.0378"
             style="stop-color:#6034f2;stop-opacity:1"
             id="stop72813" /><stop
             path="c -20.5103,0  -41.0205,0  -61.5308,0"
             style="stop-color:#ffffff;stop-opacity:1"
             id="stop72815" /><stop
             path="c 0,-21.0126  0,-42.0252  0,-63.0378"
             style="stop-color:#6034f2;stop-opacity:1"
             id="stop72817" /></meshpatch></meshrow></meshgradient></defs><script
     id="mesh_polyfill"
     type="text/javascript">
!function(){const t=&quot;http://www.w3.org/2000/svg&quot;,e=&quot;http://www.w3.org/1999/xlink&quot;,s=&quot;http://www.w3.org/1999/xhtml&quot;,r=2;if(document.createElementNS(t,&quot;meshgradient&quot;).x)return;const n=(t,e,s,r)=&gt;{let n=new x(.5*(e.x+s.x),.5*(e.y+s.y)),o=new x(.5*(t.x+e.x),.5*(t.y+e.y)),i=new x(.5*(s.x+r.x),.5*(s.y+r.y)),a=new x(.5*(n.x+o.x),.5*(n.y+o.y)),h=new x(.5*(n.x+i.x),.5*(n.y+i.y)),l=new x(.5*(a.x+h.x),.5*(a.y+h.y));return[[t,o,a,l],[l,h,i,r]]},o=t=&gt;{let e=t[0].distSquared(t[1]),s=t[2].distSquared(t[3]),r=.25*t[0].distSquared(t[2]),n=.25*t[1].distSquared(t[3]),o=e&gt;s?e:s,i=r&gt;n?r:n;return 18*(o&gt;i?o:i)},i=(t,e)=&gt;Math.sqrt(t.distSquared(e)),a=(t,e)=&gt;t.scale(2/3).add(e.scale(1/3)),h=t=&gt;{let e,s,r,n,o,i,a,h=new g;return t.match(/(\w+\(\s*[^)]+\))+/g).forEach(t=&gt;{let l=t.match(/[\w.-]+/g),d=l.shift();switch(d){case&quot;translate&quot;:2===l.length?e=new g(1,0,0,1,l[0],l[1]):(console.error(&quot;mesh.js: translate does not have 2 arguments!&quot;),e=new g(1,0,0,1,0,0)),h=h.append(e);break;case&quot;scale&quot;:1===l.length?s=new g(l[0],0,0,l[0],0,0):2===l.length?s=new g(l[0],0,0,l[1],0,0):(console.error(&quot;mesh.js: scale does not have 1 or 2 arguments!&quot;),s=new g(1,0,0,1,0,0)),h=h.append(s);break;case&quot;rotate&quot;:if(3===l.length&amp;&amp;(e=new g(1,0,0,1,l[1],l[2]),h=h.append(e)),l[0]){r=l[0]*Math.PI/180;let t=Math.cos(r),e=Math.sin(r);Math.abs(t)&lt;1e-16&amp;&amp;(t=0),Math.abs(e)&lt;1e-16&amp;&amp;(e=0),a=new g(t,e,-e,t,0,0),h=h.append(a)}else console.error(&quot;math.js: No argument to rotate transform!&quot;);3===l.length&amp;&amp;(e=new g(1,0,0,1,-l[1],-l[2]),h=h.append(e));break;case&quot;skewX&quot;:l[0]?(r=l[0]*Math.PI/180,n=Math.tan(r),o=new g(1,0,n,1,0,0),h=h.append(o)):console.error(&quot;math.js: No argument to skewX transform!&quot;);break;case&quot;skewY&quot;:l[0]?(r=l[0]*Math.PI/180,n=Math.tan(r),i=new g(1,n,0,1,0,0),h=h.append(i)):console.error(&quot;math.js: No argument to skewY transform!&quot;);break;case&quot;matrix&quot;:6===l.length?h=h.append(new g(...l)):console.error(&quot;math.js: Incorrect number of arguments for matrix!&quot;);break;default:console.error(&quot;mesh.js: Unhandled transform type: &quot;+d)}}),h},l=t=&gt;{let e=[],s=t.split(/[ ,]+/);for(let t=0,r=s.length-1;t&lt;r;t+=2)e.push(new x(parseFloat(s[t]),parseFloat(s[t+1])));return e},d=(t,e)=&gt;{for(let s in e)t.setAttribute(s,e[s])},c=(t,e,s,r,n)=&gt;{let o,i,a=[0,0,0,0];for(let h=0;h&lt;3;++h)e[h]&lt;t[h]&amp;&amp;e[h]&lt;s[h]||t[h]&lt;e[h]&amp;&amp;s[h]&lt;e[h]?a[h]=0:(a[h]=.5*((e[h]-t[h])/r+(s[h]-e[h])/n),o=Math.abs(3*(e[h]-t[h])/r),i=Math.abs(3*(s[h]-e[h])/n),a[h]&gt;o?a[h]=o:a[h]&gt;i&amp;&amp;(a[h]=i));return a},u=[[1,0,0,0,0,0,0,0,0,0,0,0,0,0,0,0],[0,0,0,0,1,0,0,0,0,0,0,0,0,0,0,0],[-3,3,0,0,-2,-1,0,0,0,0,0,0,0,0,0,0],[2,-2,0,0,1,1,0,0,0,0,0,0,0,0,0,0],[0,0,0,0,0,0,0,0,1,0,0,0,0,0,0,0],[0,0,0,0,0,0,0,0,0,0,0,0,1,0,0,0],[0,0,0,0,0,0,0,0,-3,3,0,0,-2,-1,0,0],[0,0,0,0,0,0,0,0,2,-2,0,0,1,1,0,0],[-3,0,3,0,0,0,0,0,-2,0,-1,0,0,0,0,0],[0,0,0,0,-3,0,3,0,0,0,0,0,-2,0,-1,0],[9,-9,-9,9,6,3,-6,-3,6,-6,3,-3,4,2,2,1],[-6,6,6,-6,-3,-3,3,3,-4,4,-2,2,-2,-2,-1,-1],[2,0,-2,0,0,0,0,0,1,0,1,0,0,0,0,0],[0,0,0,0,2,0,-2,0,0,0,0,0,1,0,1,0],[-6,6,6,-6,-4,-2,4,2,-3,3,-3,3,-2,-1,-2,-1],[4,-4,-4,4,2,2,-2,-2,2,-2,2,-2,1,1,1,1]],f=t=&gt;{let e=[];for(let s=0;s&lt;16;++s){e[s]=0;for(let r=0;r&lt;16;++r)e[s]+=u[s][r]*t[r]}return e},p=(t,e,s)=&gt;{const r=e*e,n=s*s,o=e*e*e,i=s*s*s;return t[0]+t[1]*e+t[2]*r+t[3]*o+t[4]*s+t[5]*s*e+t[6]*s*r+t[7]*s*o+t[8]*n+t[9]*n*e+t[10]*n*r+t[11]*n*o+t[12]*i+t[13]*i*e+t[14]*i*r+t[15]*i*o},y=t=&gt;{let e=[],s=[],r=[];for(let s=0;s&lt;4;++s)e[s]=[],e[s][0]=n(t[0][s],t[1][s],t[2][s],t[3][s]),e[s][1]=[],e[s][1].push(...n(...e[s][0][0])),e[s][1].push(...n(...e[s][0][1])),e[s][2]=[],e[s][2].push(...n(...e[s][1][0])),e[s][2].push(...n(...e[s][1][1])),e[s][2].push(...n(...e[s][1][2])),e[s][2].push(...n(...e[s][1][3]));for(let t=0;t&lt;8;++t){s[t]=[];for(let r=0;r&lt;4;++r)s[t][r]=[],s[t][r][0]=n(e[0][2][t][r],e[1][2][t][r],e[2][2][t][r],e[3][2][t][r]),s[t][r][1]=[],s[t][r][1].push(...n(...s[t][r][0][0])),s[t][r][1].push(...n(...s[t][r][0][1])),s[t][r][2]=[],s[t][r][2].push(...n(...s[t][r][1][0])),s[t][r][2].push(...n(...s[t][r][1][1])),s[t][r][2].push(...n(...s[t][r][1][2])),s[t][r][2].push(...n(...s[t][r][1][3]))}for(let t=0;t&lt;8;++t){r[t]=[];for(let e=0;e&lt;8;++e)r[t][e]=[],r[t][e][0]=s[t][0][2][e],r[t][e][1]=s[t][1][2][e],r[t][e][2]=s[t][2][2][e],r[t][e][3]=s[t][3][2][e]}return r};class x{constructor(t,e){this.x=t||0,this.y=e||0}toString(){return`(x=${this.x}, y=${this.y})`}clone(){return new x(this.x,this.y)}add(t){return new x(this.x+t.x,this.y+t.y)}scale(t){return void 0===t.x?new x(this.x*t,this.y*t):new x(this.x*t.x,this.y*t.y)}distSquared(t){let e=this.x-t.x,s=this.y-t.y;return e*e+s*s}transform(t){let e=this.x*t.a+this.y*t.c+t.e,s=this.x*t.b+this.y*t.d+t.f;return new x(e,s)}}class g{constructor(t,e,s,r,n,o){void 0===t?(this.a=1,this.b=0,this.c=0,this.d=1,this.e=0,this.f=0):(this.a=t,this.b=e,this.c=s,this.d=r,this.e=n,this.f=o)}toString(){return`affine: ${this.a} ${this.c} ${this.e} \n       ${this.b} ${this.d} ${this.f}`}append(t){t instanceof g||console.error(&quot;mesh.js: argument to Affine.append is not affine!&quot;);let e=this.a*t.a+this.c*t.b,s=this.b*t.a+this.d*t.b,r=this.a*t.c+this.c*t.d,n=this.b*t.c+this.d*t.d,o=this.a*t.e+this.c*t.f+this.e,i=this.b*t.e+this.d*t.f+this.f;return new g(e,s,r,n,o,i)}}class w{constructor(t,e){this.nodes=t,this.colors=e}paintCurve(t,e){if(o(this.nodes)&gt;r){const s=n(...this.nodes);let r=[[],[]],o=[[],[]];for(let t=0;t&lt;4;++t)r[0][t]=this.colors[0][t],r[1][t]=(this.colors[0][t]+this.colors[1][t])/2,o[0][t]=r[1][t],o[1][t]=this.colors[1][t];let i=new w(s[0],r),a=new w(s[1],o);i.paintCurve(t,e),a.paintCurve(t,e)}else{let s=Math.round(this.nodes[0].x);if(s&gt;=0&amp;&amp;s&lt;e){let r=4*(~~this.nodes[0].y*e+s);t[r]=Math.round(this.colors[0][0]),t[r+1]=Math.round(this.colors[0][1]),t[r+2]=Math.round(this.colors[0][2]),t[r+3]=Math.round(this.colors[0][3])}}}}class m{constructor(t,e){this.nodes=t,this.colors=e}split(){let t=[[],[],[],[]],e=[[],[],[],[]],s=[[[],[]],[[],[]]],r=[[[],[]],[[],[]]];for(let s=0;s&lt;4;++s){const r=n(this.nodes[0][s],this.nodes[1][s],this.nodes[2][s],this.nodes[3][s]);t[0][s]=r[0][0],t[1][s]=r[0][1],t[2][s]=r[0][2],t[3][s]=r[0][3],e[0][s]=r[1][0],e[1][s]=r[1][1],e[2][s]=r[1][2],e[3][s]=r[1][3]}for(let t=0;t&lt;4;++t)s[0][0][t]=this.colors[0][0][t],s[0][1][t]=this.colors[0][1][t],s[1][0][t]=(this.colors[0][0][t]+this.colors[1][0][t])/2,s[1][1][t]=(this.colors[0][1][t]+this.colors[1][1][t])/2,r[0][0][t]=s[1][0][t],r[0][1][t]=s[1][1][t],r[1][0][t]=this.colors[1][0][t],r[1][1][t]=this.colors[1][1][t];return[new m(t,s),new m(e,r)]}paint(t,e){let s,n=!1;for(let t=0;t&lt;4;++t)if((s=o([this.nodes[0][t],this.nodes[1][t],this.nodes[2][t],this.nodes[3][t]]))&gt;r){n=!0;break}if(n){let s=this.split();s[0].paint(t,e),s[1].paint(t,e)}else{new w([...this.nodes[0]],[...this.colors[0]]).paintCurve(t,e)}}}class b{constructor(t){this.readMesh(t),this.type=t.getAttribute(&quot;type&quot;)||&quot;bilinear&quot;}readMesh(t){let e=[[]],s=[[]],r=Number(t.getAttribute(&quot;x&quot;)),n=Number(t.getAttribute(&quot;y&quot;));e[0][0]=new x(r,n);let o=t.children;for(let t=0,r=o.length;t&lt;r;++t){e[3*t+1]=[],e[3*t+2]=[],e[3*t+3]=[],s[t+1]=[];let r=o[t].children;for(let n=0,o=r.length;n&lt;o;++n){let o=r[n].children;for(let r=0,i=o.length;r&lt;i;++r){let i=r;0!==t&amp;&amp;++i;let h,d=o[r].getAttribute(&quot;path&quot;),c=&quot;l&quot;;null!=d&amp;&amp;(c=(h=d.match(/\s*([lLcC])\s*(.*)/))[1]);let u=l(h[2]);switch(c){case&quot;l&quot;:0===i?(e[3*t][3*n+3]=u[0].add(e[3*t][3*n]),e[3*t][3*n+1]=a(e[3*t][3*n],e[3*t][3*n+3]),e[3*t][3*n+2]=a(e[3*t][3*n+3],e[3*t][3*n])):1===i?(e[3*t+3][3*n+3]=u[0].add(e[3*t][3*n+3]),e[3*t+1][3*n+3]=a(e[3*t][3*n+3],e[3*t+3][3*n+3]),e[3*t+2][3*n+3]=a(e[3*t+3][3*n+3],e[3*t][3*n+3])):2===i?(0===n&amp;&amp;(e[3*t+3][3*n+0]=u[0].add(e[3*t+3][3*n+3])),e[3*t+3][3*n+1]=a(e[3*t+3][3*n],e[3*t+3][3*n+3]),e[3*t+3][3*n+2]=a(e[3*t+3][3*n+3],e[3*t+3][3*n])):(e[3*t+1][3*n]=a(e[3*t][3*n],e[3*t+3][3*n]),e[3*t+2][3*n]=a(e[3*t+3][3*n],e[3*t][3*n]));break;case&quot;L&quot;:0===i?(e[3*t][3*n+3]=u[0],e[3*t][3*n+1]=a(e[3*t][3*n],e[3*t][3*n+3]),e[3*t][3*n+2]=a(e[3*t][3*n+3],e[3*t][3*n])):1===i?(e[3*t+3][3*n+3]=u[0],e[3*t+1][3*n+3]=a(e[3*t][3*n+3],e[3*t+3][3*n+3]),e[3*t+2][3*n+3]=a(e[3*t+3][3*n+3],e[3*t][3*n+3])):2===i?(0===n&amp;&amp;(e[3*t+3][3*n+0]=u[0]),e[3*t+3][3*n+1]=a(e[3*t+3][3*n],e[3*t+3][3*n+3]),e[3*t+3][3*n+2]=a(e[3*t+3][3*n+3],e[3*t+3][3*n])):(e[3*t+1][3*n]=a(e[3*t][3*n],e[3*t+3][3*n]),e[3*t+2][3*n]=a(e[3*t+3][3*n],e[3*t][3*n]));break;case&quot;c&quot;:0===i?(e[3*t][3*n+1]=u[0].add(e[3*t][3*n]),e[3*t][3*n+2]=u[1].add(e[3*t][3*n]),e[3*t][3*n+3]=u[2].add(e[3*t][3*n])):1===i?(e[3*t+1][3*n+3]=u[0].add(e[3*t][3*n+3]),e[3*t+2][3*n+3]=u[1].add(e[3*t][3*n+3]),e[3*t+3][3*n+3]=u[2].add(e[3*t][3*n+3])):2===i?(e[3*t+3][3*n+2]=u[0].add(e[3*t+3][3*n+3]),e[3*t+3][3*n+1]=u[1].add(e[3*t+3][3*n+3]),0===n&amp;&amp;(e[3*t+3][3*n+0]=u[2].add(e[3*t+3][3*n+3]))):(e[3*t+2][3*n]=u[0].add(e[3*t+3][3*n]),e[3*t+1][3*n]=u[1].add(e[3*t+3][3*n]));break;case&quot;C&quot;:0===i?(e[3*t][3*n+1]=u[0],e[3*t][3*n+2]=u[1],e[3*t][3*n+3]=u[2]):1===i?(e[3*t+1][3*n+3]=u[0],e[3*t+2][3*n+3]=u[1],e[3*t+3][3*n+3]=u[2]):2===i?(e[3*t+3][3*n+2]=u[0],e[3*t+3][3*n+1]=u[1],0===n&amp;&amp;(e[3*t+3][3*n+0]=u[2])):(e[3*t+2][3*n]=u[0],e[3*t+1][3*n]=u[1]);break;default:console.error(&quot;mesh.js: &quot;+c+&quot; invalid path type.&quot;)}if(0===t&amp;&amp;0===n||r&gt;0){let e=window.getComputedStyle(o[r]).stopColor.match(/^rgb\s*\(\s*(\d+)\s*,\s*(\d+)\s*,\s*(\d+)\s*\)$/i),a=window.getComputedStyle(o[r]).stopOpacity,h=255;a&amp;&amp;(h=Math.floor(255*a)),e&amp;&amp;(0===i?(s[t][n]=[],s[t][n][0]=Math.floor(e[1]),s[t][n][1]=Math.floor(e[2]),s[t][n][2]=Math.floor(e[3]),s[t][n][3]=h):1===i?(s[t][n+1]=[],s[t][n+1][0]=Math.floor(e[1]),s[t][n+1][1]=Math.floor(e[2]),s[t][n+1][2]=Math.floor(e[3]),s[t][n+1][3]=h):2===i?(s[t+1][n+1]=[],s[t+1][n+1][0]=Math.floor(e[1]),s[t+1][n+1][1]=Math.floor(e[2]),s[t+1][n+1][2]=Math.floor(e[3]),s[t+1][n+1][3]=h):3===i&amp;&amp;(s[t+1][n]=[],s[t+1][n][0]=Math.floor(e[1]),s[t+1][n][1]=Math.floor(e[2]),s[t+1][n][2]=Math.floor(e[3]),s[t+1][n][3]=h))}}e[3*t+1][3*n+1]=new x,e[3*t+1][3*n+2]=new x,e[3*t+2][3*n+1]=new x,e[3*t+2][3*n+2]=new x,e[3*t+1][3*n+1].x=(-4*e[3*t][3*n].x+6*(e[3*t][3*n+1].x+e[3*t+1][3*n].x)+-2*(e[3*t][3*n+3].x+e[3*t+3][3*n].x)+3*(e[3*t+3][3*n+1].x+e[3*t+1][3*n+3].x)+-1*e[3*t+3][3*n+3].x)/9,e[3*t+1][3*n+2].x=(-4*e[3*t][3*n+3].x+6*(e[3*t][3*n+2].x+e[3*t+1][3*n+3].x)+-2*(e[3*t][3*n].x+e[3*t+3][3*n+3].x)+3*(e[3*t+3][3*n+2].x+e[3*t+1][3*n].x)+-1*e[3*t+3][3*n].x)/9,e[3*t+2][3*n+1].x=(-4*e[3*t+3][3*n].x+6*(e[3*t+3][3*n+1].x+e[3*t+2][3*n].x)+-2*(e[3*t+3][3*n+3].x+e[3*t][3*n].x)+3*(e[3*t][3*n+1].x+e[3*t+2][3*n+3].x)+-1*e[3*t][3*n+3].x)/9,e[3*t+2][3*n+2].x=(-4*e[3*t+3][3*n+3].x+6*(e[3*t+3][3*n+2].x+e[3*t+2][3*n+3].x)+-2*(e[3*t+3][3*n].x+e[3*t][3*n+3].x)+3*(e[3*t][3*n+2].x+e[3*t+2][3*n].x)+-1*e[3*t][3*n].x)/9,e[3*t+1][3*n+1].y=(-4*e[3*t][3*n].y+6*(e[3*t][3*n+1].y+e[3*t+1][3*n].y)+-2*(e[3*t][3*n+3].y+e[3*t+3][3*n].y)+3*(e[3*t+3][3*n+1].y+e[3*t+1][3*n+3].y)+-1*e[3*t+3][3*n+3].y)/9,e[3*t+1][3*n+2].y=(-4*e[3*t][3*n+3].y+6*(e[3*t][3*n+2].y+e[3*t+1][3*n+3].y)+-2*(e[3*t][3*n].y+e[3*t+3][3*n+3].y)+3*(e[3*t+3][3*n+2].y+e[3*t+1][3*n].y)+-1*e[3*t+3][3*n].y)/9,e[3*t+2][3*n+1].y=(-4*e[3*t+3][3*n].y+6*(e[3*t+3][3*n+1].y+e[3*t+2][3*n].y)+-2*(e[3*t+3][3*n+3].y+e[3*t][3*n].y)+3*(e[3*t][3*n+1].y+e[3*t+2][3*n+3].y)+-1*e[3*t][3*n+3].y)/9,e[3*t+2][3*n+2].y=(-4*e[3*t+3][3*n+3].y+6*(e[3*t+3][3*n+2].y+e[3*t+2][3*n+3].y)+-2*(e[3*t+3][3*n].y+e[3*t][3*n+3].y)+3*(e[3*t][3*n+2].y+e[3*t+2][3*n].y)+-1*e[3*t][3*n].y)/9}}this.nodes=e,this.colors=s}paintMesh(t,e){let s=(this.nodes.length-1)/3,r=(this.nodes[0].length-1)/3;if(&quot;bilinear&quot;===this.type||s&lt;2||r&lt;2){let n;for(let o=0;o&lt;s;++o)for(let s=0;s&lt;r;++s){let r=[];for(let t=3*o,e=3*o+4;t&lt;e;++t)r.push(this.nodes[t].slice(3*s,3*s+4));let i=[];i.push(this.colors[o].slice(s,s+2)),i.push(this.colors[o+1].slice(s,s+2)),(n=new m(r,i)).paint(t,e)}}else{let n,o,a,h,l,d,u;const x=s,g=r;s++,r++;let w=new Array(s);for(let t=0;t&lt;s;++t){w[t]=new Array(r);for(let e=0;e&lt;r;++e)w[t][e]=[],w[t][e][0]=this.nodes[3*t][3*e],w[t][e][1]=this.colors[t][e]}for(let t=0;t&lt;s;++t)for(let e=0;e&lt;r;++e)0!==t&amp;&amp;t!==x&amp;&amp;(n=i(w[t-1][e][0],w[t][e][0]),o=i(w[t+1][e][0],w[t][e][0]),w[t][e][2]=c(w[t-1][e][1],w[t][e][1],w[t+1][e][1],n,o)),0!==e&amp;&amp;e!==g&amp;&amp;(n=i(w[t][e-1][0],w[t][e][0]),o=i(w[t][e+1][0],w[t][e][0]),w[t][e][3]=c(w[t][e-1][1],w[t][e][1],w[t][e+1][1],n,o));for(let t=0;t&lt;r;++t){w[0][t][2]=[],w[x][t][2]=[];for(let e=0;e&lt;4;++e)n=i(w[1][t][0],w[0][t][0]),o=i(w[x][t][0],w[x-1][t][0]),w[0][t][2][e]=n&gt;0?2*(w[1][t][1][e]-w[0][t][1][e])/n-w[1][t][2][e]:0,w[x][t][2][e]=o&gt;0?2*(w[x][t][1][e]-w[x-1][t][1][e])/o-w[x-1][t][2][e]:0}for(let t=0;t&lt;s;++t){w[t][0][3]=[],w[t][g][3]=[];for(let e=0;e&lt;4;++e)n=i(w[t][1][0],w[t][0][0]),o=i(w[t][g][0],w[t][g-1][0]),w[t][0][3][e]=n&gt;0?2*(w[t][1][1][e]-w[t][0][1][e])/n-w[t][1][3][e]:0,w[t][g][3][e]=o&gt;0?2*(w[t][g][1][e]-w[t][g-1][1][e])/o-w[t][g-1][3][e]:0}for(let s=0;s&lt;x;++s)for(let r=0;r&lt;g;++r){let n=i(w[s][r][0],w[s+1][r][0]),o=i(w[s][r+1][0],w[s+1][r+1][0]),c=i(w[s][r][0],w[s][r+1][0]),x=i(w[s+1][r][0],w[s+1][r+1][0]),g=[[],[],[],[]];for(let t=0;t&lt;4;++t){(d=[])[0]=w[s][r][1][t],d[1]=w[s+1][r][1][t],d[2]=w[s][r+1][1][t],d[3]=w[s+1][r+1][1][t],d[4]=w[s][r][2][t]*n,d[5]=w[s+1][r][2][t]*n,d[6]=w[s][r+1][2][t]*o,d[7]=w[s+1][r+1][2][t]*o,d[8]=w[s][r][3][t]*c,d[9]=w[s+1][r][3][t]*x,d[10]=w[s][r+1][3][t]*c,d[11]=w[s+1][r+1][3][t]*x,d[12]=0,d[13]=0,d[14]=0,d[15]=0,u=f(d);for(let e=0;e&lt;9;++e){g[t][e]=[];for(let s=0;s&lt;9;++s)g[t][e][s]=p(u,e/8,s/8),g[t][e][s]&gt;255?g[t][e][s]=255:g[t][e][s]&lt;0&amp;&amp;(g[t][e][s]=0)}}h=[];for(let t=3*s,e=3*s+4;t&lt;e;++t)h.push(this.nodes[t].slice(3*r,3*r+4));l=y(h);for(let s=0;s&lt;8;++s)for(let r=0;r&lt;8;++r)(a=new m(l[s][r],[[[g[0][s][r],g[1][s][r],g[2][s][r],g[3][s][r]],[g[0][s][r+1],g[1][s][r+1],g[2][s][r+1],g[3][s][r+1]]],[[g[0][s+1][r],g[1][s+1][r],g[2][s+1][r],g[3][s+1][r]],[g[0][s+1][r+1],g[1][s+1][r+1],g[2][s+1][r+1],g[3][s+1][r+1]]]])).paint(t,e)}}}transform(t){if(t instanceof x)for(let e=0,s=this.nodes.length;e&lt;s;++e)for(let s=0,r=this.nodes[0].length;s&lt;r;++s)this.nodes[e][s]=this.nodes[e][s].add(t);else if(t instanceof g)for(let e=0,s=this.nodes.length;e&lt;s;++e)for(let s=0,r=this.nodes[0].length;s&lt;r;++s)this.nodes[e][s]=this.nodes[e][s].transform(t)}scale(t){for(let e=0,s=this.nodes.length;e&lt;s;++e)for(let s=0,r=this.nodes[0].length;s&lt;r;++s)this.nodes[e][s]=this.nodes[e][s].scale(t)}}document.querySelectorAll(&quot;rect,circle,ellipse,path,text&quot;).forEach((r,n)=&gt;{let o=r.getAttribute(&quot;id&quot;);o||(o=&quot;patchjs_shape&quot;+n,r.setAttribute(&quot;id&quot;,o));const i=r.style.fill.match(/^url\(\s*&quot;?\s*#([^\s&quot;]+)&quot;?\s*\)/),a=r.style.stroke.match(/^url\(\s*&quot;?\s*#([^\s&quot;]+)&quot;?\s*\)/);if(i&amp;&amp;i[1]){const a=document.getElementById(i[1]);if(a&amp;&amp;&quot;meshgradient&quot;===a.nodeName){const i=r.getBBox();let l=document.createElementNS(s,&quot;canvas&quot;);d(l,{width:i.width,height:i.height});const c=l.getContext(&quot;2d&quot;);let u=c.createImageData(i.width,i.height);const f=new b(a);&quot;objectBoundingBox&quot;===a.getAttribute(&quot;gradientUnits&quot;)&amp;&amp;f.scale(new x(i.width,i.height));const p=a.getAttribute(&quot;gradientTransform&quot;);null!=p&amp;&amp;f.transform(h(p)),&quot;userSpaceOnUse&quot;===a.getAttribute(&quot;gradientUnits&quot;)&amp;&amp;f.transform(new x(-i.x,-i.y)),f.paintMesh(u.data,l.width),c.putImageData(u,0,0);const y=document.createElementNS(t,&quot;image&quot;);d(y,{width:i.width,height:i.height,x:i.x,y:i.y});let g=l.toDataURL();y.setAttributeNS(e,&quot;xlink:href&quot;,g),r.parentNode.insertBefore(y,r),r.style.fill=&quot;none&quot;;const w=document.createElementNS(t,&quot;use&quot;);w.setAttributeNS(e,&quot;xlink:href&quot;,&quot;#&quot;+o);const m=&quot;patchjs_clip&quot;+n,M=document.createElementNS(t,&quot;clipPath&quot;);M.setAttribute(&quot;id&quot;,m),M.appendChild(w),r.parentElement.insertBefore(M,r),y.setAttribute(&quot;clip-path&quot;,&quot;url(#&quot;+m+&quot;)&quot;),u=null,l=null,g=null}}if(a&amp;&amp;a[1]){const o=document.getElementById(a[1]);if(o&amp;&amp;&quot;meshgradient&quot;===o.nodeName){const i=parseFloat(r.style.strokeWidth.slice(0,-2))*(parseFloat(r.style.strokeMiterlimit)||parseFloat(r.getAttribute(&quot;stroke-miterlimit&quot;))||1),a=r.getBBox(),l=Math.trunc(a.width+i),c=Math.trunc(a.height+i),u=Math.trunc(a.x-i/2),f=Math.trunc(a.y-i/2);let p=document.createElementNS(s,&quot;canvas&quot;);d(p,{width:l,height:c});const y=p.getContext(&quot;2d&quot;);let g=y.createImageData(l,c);const w=new b(o);&quot;objectBoundingBox&quot;===o.getAttribute(&quot;gradientUnits&quot;)&amp;&amp;w.scale(new x(l,c));const m=o.getAttribute(&quot;gradientTransform&quot;);null!=m&amp;&amp;w.transform(h(m)),&quot;userSpaceOnUse&quot;===o.getAttribute(&quot;gradientUnits&quot;)&amp;&amp;w.transform(new x(-u,-f)),w.paintMesh(g.data,p.width),y.putImageData(g,0,0);const M=document.createElementNS(t,&quot;image&quot;);d(M,{width:l,height:c,x:0,y:0});let S=p.toDataURL();M.setAttributeNS(e,&quot;xlink:href&quot;,S);const k=&quot;pattern_clip&quot;+n,A=document.createElementNS(t,&quot;pattern&quot;);d(A,{id:k,patternUnits:&quot;userSpaceOnUse&quot;,width:l,height:c,x:u,y:f}),A.appendChild(M),o.parentNode.appendChild(A),r.style.stroke=&quot;url(#&quot;+k+&quot;)&quot;,g=null,p=null,S=null}}})}();
</script><circle
     style="display:inline;opacity:0.480826;fill:url(#radialGradient53151);fill-opacity:1;fill-rule:nonzero;stroke:url(#linearGradient72795);stroke-width:2.1;stroke-linecap:square;stroke-linejoin:round;stroke-dasharray:25.2, 25.2;stroke-dashoffset:0;stroke-opacity:1;paint-order:markers fill stroke;stop-color:#000000"
     id="path48010"
     cx="68.104675"
     cy="67.381691"
     r="63.188412"
     inkscape:label="circle-base-outline"
     sodipodi:insensitive="true" /><circle
     style="display:inline;opacity:1;fill:#12051c;fill-opacity:0.778462;fill-rule:nonzero;stroke:#5be0c4;stroke-width:2.571;stroke-linecap:square;stroke-linejoin:round;stroke-dasharray:none;stroke-dashoffset:0;stroke-opacity:0.501538;paint-order:markers fill stroke;filter:url(#filter53298);stop-color:#000000"
     id="path48010-6"
     cx="67.917717"
     cy="67.537376"
     r="60.547684"
     sodipodi:insensitive="true"
     inkscape:label="circle-background" /><g
     id="g54574"
     transform="matrix(0.4470227,0,0,0.4470227,10.668874,10.090491)"
     style="display:inline;stroke:url(#linearGradient55859);filter:url(#filter56367)"
     inkscape:label="circle-marble-center"
     sodipodi:insensitive="true"><circle
       cx="128"
       cy="128"
       r="128"
       id="circle54559"
       style="display:inline;fill:url(#radialGradient54973);fill-opacity:1;stroke:url(#linearGradient55859);filter:url(#filter54943)"
       sodipodi:insensitive="true" /><circle
       cx="128"
       stroke="#ffffff"
       stroke-width="18"
       cy="128"
       r="101"
       id="circle54561"
       style="display:inline;opacity:0.508475;fill:url(#radialGradient62085);fill-opacity:1;stroke:url(#linearGradient55859);stroke-width:0.997712;stroke-dasharray:none"
       sodipodi:insensitive="true" /><use
       id="use66081"
       inkscape:spray-origin="#circle54561"
       xlink:href="#circle54561"
       style="display:inline;opacity:1;mix-blend-mode:normal;stroke:url(#linearGradient66083);filter:url(#filter66155)"
       transform="translate(4.4436272,-5.3966237)"
       sodipodi:insensitive="true" /><circle
       cx="128"
       stroke="#ffffff"
       stroke-width="18"
       cy="128"
       r="101"
       id="circle69586"
       style="display:inline;opacity:0.508475;fill:url(#radialGradient62085);fill-opacity:1;stroke:url(#linearGradient55859);stroke-width:0.997712;stroke-dasharray:none"
       sodipodi:insensitive="true" /><circle
       cx="128"
       stroke="#ffffff"
       stroke-width="18"
       cy="128"
       r="101"
       id="circle72779"
       style="display:inline;opacity:0.508475;fill:url(#radialGradient62085);fill-opacity:1;stroke:url(#linearGradient55859);stroke-width:0.997712;stroke-dasharray:none"
       sodipodi:insensitive="true" /></g><circle
     style="display:inline;opacity:0.365782;mix-blend-mode:normal;fill:url(#radialGradient53151);fill-opacity:1;fill-rule:nonzero;stroke:#28d42a;stroke-width:2.1;stroke-linecap:square;stroke-linejoin:round;stroke-dasharray:2.1, 12.6;stroke-dashoffset:0;stroke-opacity:1;paint-order:markers fill stroke;filter:url(#filter66147);stop-color:#000000"
     id="circle66141"
     cx="68.104675"
     cy="67.381691"
     r="63.188412"
     sodipodi:insensitive="true"
     inkscape:label="circle-outline-under" /><path
     d="m 56.555601,95.268306 c 0,-2.301322 0.01574,-2.329693 1.458651,-2.60022 4.354072,-0.816781 6.338568,-6.741638 3.419877,-10.210157 -1.554544,-1.847386 -2.312359,-2.144793 -6.604747,-2.588662 -6.462515,-0.668672 -11.92905,-3.266806 -16.504849,-7.844769 l -2.279203,-2.27978 10.255145,-0.11515 10.255086,-0.115152 v -1.287512 -1.287511 h 20.510211 20.51027 v 2.541371 2.541908 l -1.907343,0.288871 c -2.333007,0.352005 -5.018417,2.226194 -6.594939,4.608418 -1.385589,2.09383 -1.850165,6.220538 -0.992685,8.818651 1.079049,3.269447 5.284219,6.645527 8.307559,6.669689 1.162429,0 1.187452,0.06353 1.187452,2.600217 v 2.590731 H 89.80376 c -7.607814,0 -7.772282,0 -7.772282,-0.906719 0,-0.499122 -0.660731,-1.567454 -1.468181,-2.37486 -1.231326,-1.231326 -1.779287,-1.46818 -3.396132,-1.46818 -2.326693,0 -3.922275,1.104261 -4.698773,3.251578 l -0.541806,1.498163 H 64.241043 56.555502 V 95.272177 Z M 45.878426,66.398061 c -0.231097,-0.299393 -0.966677,-2.526659 -1.635151,-4.955103 l -1.215244,-4.415639 -1.950625,0.09927 c -1.950029,0.09927 -1.950624,0.0953 -2.498348,-1.758242 -0.677607,-2.295543 -0.438171,-2.979999 1.167596,-3.332482 0.689915,-0.152873 1.330197,-0.404419 1.422715,-0.566227 0.09331,-0.156844 -0.284702,-1.844805 -0.838223,-3.744823 l -1.006582,-3.454344 2.413673,-4.533828 c 2.576273,-4.839554 2.848527,-5.164699 4.330863,-5.175221 1.192413,0 1.464409,0.514806 2.905767,5.607019 0.638891,2.256134 1.445547,5.093782 1.792788,6.306684 l 0.631149,2.204156 20.989439,-6.002565 c 11.544166,-3.302006 21.294273,-5.944233 21.666827,-5.8728 0.729822,0.140961 1.89166,3.469571 1.535287,4.398307 -0.262069,0.682768 0.852914,0.336123 -22.626913,7.018458 -10.568139,3.007258 -19.376983,5.609064 -19.575221,5.782406 -0.313094,0.273187 0.0814,2.008201 1.828723,8.049103 0.576353,1.991921 -0.07147,2.567638 -4.275016,3.796303 -4.257365,1.24443 -4.50373,1.271232 -5.063862,0.550941 z m 24.494588,-3.464329 c 0.119122,-0.121107 4.678541,-1.428275 10.132907,-2.906441 5.454404,-1.478108 10.141502,-2.774096 10.41592,-2.879162 0.274179,-0.105225 0.593824,0.304753 0.709967,0.912872 0.115152,0.607721 0.18464,1.104659 0.150888,1.104659 -0.160814,0 -19.201853,3.480611 -20.330038,3.716472 -0.712549,0.146918 -1.19817,0.172728 -1.079445,0.05361 z m -9.031721,-1.334764 c 0.378213,-0.33096 19.825398,-8.910058 20.197516,-8.910058 0.215412,0 0.489591,0.373051 0.609309,0.831473 0.258495,0.988118 0.910887,0.700637 -11.330481,4.988736 -8.930645,3.128127 -9.870241,3.43439 -9.476384,3.08977 z"
     id="path71615"
     style="display:inline;opacity:1;fill:#141414;fill-opacity:0.766154;stroke-width:5.25294;filter:url(#filter71987)"
     transform="matrix(1.0630348,0,0,1.0292618,-2.1665053,-0.96230697)"
     inkscape:label="forge-icon-base"
     sodipodi:insensitive="true" /><path
     d="m 55.488265,92.886449 c 0,-2.301322 0.01574,-2.329693 1.458651,-2.60022 4.354072,-0.816781 6.338568,-6.741638 3.419877,-10.210157 -1.554544,-1.847386 -2.312359,-2.144793 -6.604747,-2.588662 -6.462515,-0.668672 -11.92905,-3.266806 -16.504849,-7.844769 l -2.279203,-2.27978 10.255145,-0.11515 10.255086,-0.115152 v -1.287512 -1.287511 h 20.510211 20.51027 v 2.541371 2.541908 l -1.907343,0.288871 c -2.333007,0.352005 -5.018417,2.226194 -6.594939,4.608418 -1.385589,2.09383 -1.850165,6.220538 -0.992685,8.818651 1.079049,3.269447 5.284219,6.645527 8.307559,6.669689 1.162429,0 1.187452,0.06353 1.187452,2.600217 v 2.590731 h -7.772326 c -7.607814,0 -7.772282,0 -7.772282,-0.906719 0,-0.499122 -0.660731,-1.567454 -1.468181,-2.37486 -1.231326,-1.231326 -1.779287,-1.46818 -3.396132,-1.46818 -2.326693,0 -3.922275,1.104261 -4.698773,3.251578 L 70.85925,95.217374 H 63.173707 55.488166 V 92.89032 Z M 44.81109,64.016204 c -0.231097,-0.299393 -0.966677,-2.526659 -1.635151,-4.955103 l -1.215244,-4.415639 -1.950625,0.09927 c -1.950029,0.09927 -1.950624,0.0953 -2.498348,-1.758242 -0.677607,-2.295543 -0.438171,-2.979999 1.167596,-3.332482 0.689915,-0.152873 1.330197,-0.404419 1.422715,-0.566227 0.09331,-0.156844 -0.284702,-1.844805 -0.838223,-3.744823 l -1.006582,-3.454344 2.413673,-4.533828 c 2.576273,-4.839554 2.848527,-5.164699 4.330863,-5.175221 1.192413,0 1.464409,0.514806 2.905767,5.607019 0.638891,2.256134 1.445547,5.093782 1.792788,6.306684 l 0.631149,2.204156 20.989439,-6.002565 c 11.544166,-3.302006 21.294273,-5.944233 21.666827,-5.8728 0.729822,0.140961 1.89166,3.469571 1.535287,4.398307 -0.262069,0.682768 0.852914,0.336123 -22.626913,7.018458 -10.568139,3.007258 -19.376983,5.609064 -19.575221,5.782406 -0.313094,0.273187 0.0814,2.008201 1.828723,8.049103 0.576353,1.991921 -0.07147,2.567638 -4.275016,3.796303 -4.257365,1.24443 -4.50373,1.271232 -5.063862,0.550941 z m 24.494588,-3.464329 c 0.119122,-0.121107 4.678541,-1.428275 10.132907,-2.906441 5.454404,-1.478108 10.141502,-2.774096 10.41592,-2.879162 0.274179,-0.105225 0.593824,0.304753 0.709967,0.912872 0.115152,0.607721 0.18464,1.104659 0.150888,1.104659 -0.160814,0 -19.201853,3.480611 -20.330038,3.716472 -0.712549,0.146918 -1.19817,0.172728 -1.079445,0.05361 z m -9.031721,-1.334764 c 0.378213,-0.33096 19.825398,-8.910058 20.197516,-8.910058 0.215412,0 0.489591,0.373051 0.609309,0.831473 0.258495,0.988118 0.910887,0.700637 -11.330481,4.988736 -8.930645,3.128127 -9.870241,3.43439 -9.476384,3.08977 z"
     id="path71615-7"
     style="display:inline;fill:#28d328;fill-opacity:0.572549;stroke:url(#linearGradient72031);stroke-width:2.853;stroke-dasharray:none;filter:url(#filter72021)"
     inkscape:label="forge-stroke"
     sodipodi:insensitive="true" /><path
     d="m 55.942132,92.57991 c 0,-2.301323 0.01574,-2.329694 1.458651,-2.600221 4.354072,-0.816781 6.338568,-6.741638 3.419877,-10.210157 -1.554544,-1.847386 -2.312359,-2.144793 -6.604747,-2.588662 -6.462515,-0.668672 -11.92905,-3.266806 -16.504849,-7.844769 l -2.279203,-2.27978 10.255145,-0.11515 10.255086,-0.115152 v -1.287512 -1.287511 h 20.510211 20.51027 v 2.541372 2.541907 l -1.907343,0.288871 c -2.333007,0.352005 -5.018417,2.226194 -6.594939,4.608418 -1.385589,2.093831 -1.850165,6.220538 -0.992685,8.818651 1.07905,3.269447 5.284219,6.645527 8.307559,6.669689 1.162429,0 1.187452,0.06353 1.187452,2.600217 v 2.590731 h -7.772326 c -7.607814,0 -7.772282,0 -7.772282,-0.906718 0,-0.499123 -0.660731,-1.567455 -1.468181,-2.374861 -1.231326,-1.231326 -1.779287,-1.46818 -3.396132,-1.46818 -2.326693,0 -3.922275,1.104261 -4.698773,3.251578 l -0.541806,1.498163 H 63.627574 55.942033 V 92.58378 Z M 45.264957,63.709664 C 45.03386,63.410271 44.29828,61.183005 43.629806,58.754562 l -1.215244,-4.41564 -1.950625,0.09927 c -1.950029,0.09927 -1.950625,0.0953 -2.498348,-1.758242 -0.677607,-2.295543 -0.438171,-2.979999 1.167596,-3.332482 0.689915,-0.152873 1.330197,-0.404419 1.422715,-0.566227 0.09331,-0.156844 -0.284702,-1.844805 -0.838223,-3.744823 l -1.006582,-3.454344 2.413672,-4.533828 c 2.576274,-4.839554 2.848528,-5.164699 4.330864,-5.175221 1.192413,0 1.464409,0.514806 2.905767,5.607019 0.638891,2.256134 1.445547,5.093782 1.792788,6.306684 l 0.631149,2.204156 20.989439,-6.002565 c 11.544166,-3.302006 21.294273,-5.944233 21.666827,-5.872801 0.729822,0.140962 1.89166,3.469572 1.535287,4.398308 -0.262069,0.682768 0.852914,0.336123 -22.626913,7.018458 -10.568139,3.007258 -19.376983,5.609064 -19.575221,5.782406 -0.313094,0.273187 0.0814,2.008201 1.828723,8.049103 0.576353,1.991921 -0.07146,2.567638 -4.275016,3.796302 -4.257365,1.244431 -4.50373,1.271233 -5.063862,0.550942 z m 24.494588,-3.464329 c 0.119122,-0.121107 4.678541,-1.428275 10.132907,-2.906441 5.454404,-1.478108 10.141502,-2.774096 10.41592,-2.879162 0.274179,-0.105225 0.593823,0.304754 0.709967,0.912872 0.115152,0.607721 0.18464,1.104659 0.150889,1.104659 -0.160814,0 -19.201854,3.480612 -20.330039,3.716472 -0.712549,0.146918 -1.19817,0.172728 -1.079445,0.05361 z m -9.031721,-1.334764 c 0.378213,-0.33096 19.825398,-8.910057 20.197516,-8.910057 0.215412,0 0.489591,0.37305 0.609309,0.831472 0.258495,0.988118 0.910888,0.700637 -11.330481,4.988736 -8.930644,3.128127 -9.870241,3.43439 -9.476384,3.089771 z"
     id="path72033"
     style="display:inline;opacity:1;fill:url(#radialGradient72775);fill-opacity:1;stroke:url(#linearGradient72061);stroke-width:0.461;stroke-dasharray:none;filter:url(#filter72063)"
     inkscape:label="forge-color-tone"
     sodipodi:insensitive="true" /><circle
     style="display:inline;opacity:0.480826;fill:url(#radialGradient53151);fill-opacity:1;fill-rule:nonzero;stroke:#28d42a;stroke-width:2.1;stroke-linecap:square;stroke-linejoin:round;stroke-dasharray:2.1, 12.6;stroke-dashoffset:0;stroke-opacity:1;paint-order:markers fill stroke;stop-color:#000000"
     id="circle72777"
     cx="68.104675"
     cy="67.381691"
     r="63.188412"
     inkscape:label="circle-outline"
     sodipodi:insensitive="true" /><path
     d="m 55.942132,92.57991 c 0,-2.301323 0.01574,-2.329694 1.458651,-2.600221 4.354072,-0.816781 6.338568,-6.741638 3.419877,-10.210157 -1.554544,-1.847386 -2.312359,-2.144793 -6.604747,-2.588662 -6.462515,-0.668672 -11.92905,-3.266806 -16.504849,-7.844769 l -2.279203,-2.27978 10.255145,-0.11515 10.255086,-0.115152 v -1.287512 -1.287511 h 20.510211 20.51027 v 2.541372 2.541907 l -1.907343,0.288871 c -2.333007,0.352005 -5.018417,2.226194 -6.594939,4.608418 -1.385589,2.093831 -1.850165,6.220538 -0.992685,8.818651 1.07905,3.269447 5.284219,6.645527 8.307559,6.669689 1.162429,0 1.187452,0.06353 1.187452,2.600217 v 2.590731 h -7.772326 c -7.607814,0 -7.772282,0 -7.772282,-0.906718 0,-0.499123 -0.660731,-1.567455 -1.468181,-2.374861 -1.231326,-1.231326 -1.779287,-1.46818 -3.396132,-1.46818 -2.326693,0 -3.922275,1.104261 -4.698773,3.251578 l -0.541806,1.498163 H 63.627574 55.942033 V 92.58378 Z M 45.264957,63.709664 C 45.03386,63.410271 44.29828,61.183005 43.629806,58.754562 l -1.215244,-4.41564 -1.950625,0.09927 c -1.950029,0.09927 -1.950625,0.0953 -2.498348,-1.758242 -0.677607,-2.295543 -0.438171,-2.979999 1.167596,-3.332482 0.689915,-0.152873 1.330197,-0.404419 1.422715,-0.566227 0.09331,-0.156844 -0.284702,-1.844805 -0.838223,-3.744823 l -1.006582,-3.454344 2.413672,-4.533828 c 2.576274,-4.839554 2.848528,-5.164699 4.330864,-5.175221 1.192413,0 1.464409,0.514806 2.905767,5.607019 0.638891,2.256134 1.445547,5.093782 1.792788,6.306684 l 0.631149,2.204156 20.989439,-6.002565 c 11.544166,-3.302006 21.294273,-5.944233 21.666827,-5.872801 0.729822,0.140962 1.89166,3.469572 1.535287,4.398308 -0.262069,0.682768 0.852914,0.336123 -22.626913,7.018458 -10.568139,3.007258 -19.376983,5.609064 -19.575221,5.782406 -0.313094,0.273187 0.0814,2.008201 1.828723,8.049103 0.576353,1.991921 -0.07146,2.567638 -4.275016,3.796302 -4.257365,1.244431 -4.50373,1.271233 -5.063862,0.550942 z m 24.494588,-3.464329 c 0.119122,-0.121107 4.678541,-1.428275 10.132907,-2.906441 5.454404,-1.478108 10.141502,-2.774096 10.41592,-2.879162 0.274179,-0.105225 0.593823,0.304754 0.709967,0.912872 0.115152,0.607721 0.18464,1.104659 0.150889,1.104659 -0.160814,0 -19.201854,3.480612 -20.330039,3.716472 -0.712549,0.146918 -1.19817,0.172728 -1.079445,0.05361 z m -9.031721,-1.334764 c 0.378213,-0.33096 19.825398,-8.910057 20.197516,-8.910057 0.215412,0 0.489591,0.37305 0.609309,0.831472 0.258495,0.988118 0.910888,0.700637 -11.330481,4.988736 -8.930644,3.128127 -9.870241,3.43439 -9.476384,3.089771 z"
     id="path72799"
     style="display:inline;opacity:1;mix-blend-mode:luminosity;fill:url(#meshgradient72805);fill-opacity:1;fill-rule:nonzero;stroke:url(#linearGradient72061);stroke-width:0.461;stroke-dasharray:none"
     inkscape:label="forge-outline"
     sodipodi:insensitive="true" /></svg>
