<?xml version="1.0" encoding="UTF-8" standalone="no"?>
<svg
   version="1.1"
   viewBox="0 0 2452 176"
   id="svg7605"
   sodipodi:docname="hr-style1.svg"
   width="2452"
   height="176"
   inkscape:version="1.2.2 (732a01da63, 2022-12-09)"
   xmlns:inkscape="http://www.inkscape.org/namespaces/inkscape"
   xmlns:sodipodi="http://sodipodi.sourceforge.net/DTD/sodipodi-0.dtd"
   xmlns="http://www.w3.org/2000/svg"
   xmlns:svg="http://www.w3.org/2000/svg">
  <sodipodi:namedview
     id="namedview7607"
     pagecolor="#ffffff"
     bordercolor="#000000"
     borderopacity="0.25"
     inkscape:showpageshadow="2"
     inkscape:pageopacity="0.0"
     inkscape:pagecheckerboard="0"
     inkscape:deskcolor="#d1d1d1"
     showgrid="false"
     inkscape:zoom="0.436875"
     inkscape:cx="1339.0558"
     inkscape:cy="-376.53791"
     inkscape:window-width="1973"
     inkscape:window-height="1961"
     inkscape:window-x="3166"
     inkscape:window-y="87"
     inkscape:window-maximized="0"
     inkscape:current-layer="svg7605" />
  <path
     d="m 5.9171661,115.88824 c 11.4887619,1.39469 47.3911509,9.76288 68.9325779,8.36818 21.541429,-1.39469 38.295866,-15.34166 60.315996,-16.73636 22.02013,-1.39471 42.60417,7.53136 71.80477,8.36818 29.20059,0.83682 83.77222,-2.78939 103.39885,-3.34726 19.62663,-0.55787 -0.95738,0 14.36095,0 15.31835,0 57.4438,-0.27895 77.54915,0 20.1053,0.27893 24.89231,1.11575 43.08285,1.67362 18.19057,0.55789 48.82724,2.23152 66.06038,1.67364 17.23314,-0.55787 20.10531,-4.18408 37.33846,-5.0209 17.23314,-0.8368 44.51895,-0.27893 66.06039,0 21.54144,0.27895 44.04026,1.11577 63.18818,1.67364 19.14797,0.55787 28.24323,2.23151 51.69944,1.67362 23.45623,-0.55787 62.23077,-3.62619 89.03786,-5.02088 26.80712,-1.39469 55.05036,-2.7894 71.80481,-3.3473 16.75445,-0.55787 16.75445,2.23152 28.7219,0 11.96748,-2.23151 29.67932,-7.53135 43.08288,-13.38907 13.40356,-5.85772 24.41368,-9.76288 37.33859,-21.75726 12.9247,-11.994382 31.1153,-39.888322 40.2106,-50.209085 9.0952,-10.320764 10.5313,-12.831204 14.3609,-11.715458 3.8296,1.115767 6.2229,9.483945 8.6165,18.409996 2.3935,8.92607 2.3936,24.825606 5.7444,35.146371 3.3511,10.320744 9.574,18.688941 14.361,26.778176 4.787,8.08925 9.5739,15.6206 14.3609,21.75725 4.7869,6.13667 10.0527,9.48393 14.361,15.06272 4.3082,5.57877 6.2232,12.27333 11.4888,18.40999 5.2656,6.13667 16.7544,15.34167 20.1052,18.41 3.351,3.06834 -1.436,8.64712 0,0 1.4362,-8.64712 7.6593,-40.72512 8.6166,-51.88271 0.9575,-11.15756 -2.3934,-10.59969 -2.8721,-15.06273 -0.4787,-4.46303 -6.7017,-5.0209 0,-11.71544 6.7018,-6.69454 31.1153,-21.199383 40.2105,-28.451814 9.0953,-7.252431 11.0101,-15.620609 14.3611,-15.062735 3.3508,0.557873 1.9147,13.389077 5.7444,18.409995 3.8295,5.020918 13.4036,8.647143 17.2331,11.715474 3.8295,3.068334 1.9147,4.741954 5.7444,6.694521 3.8296,1.952585 1.9148,3.347297 17.2331,5.020919 15.3185,1.67364 55.529,5.0209 74.677,5.0209 19.148,0 30.1579,-3.34726 40.2107,-5.0209 10.0526,-1.673622 10.5312,-4.184099 20.1053,-5.020919 9.574,-0.83682 22.4989,-1.394694 37.3385,0 14.8397,1.394693 34.945,5.578789 51.6995,8.368179 16.7544,2.7894 26.807,6.69456 48.8271,8.3682 22.0201,1.67363 63.6669,1.95256 83.2935,1.67362 19.6267,-0.27893 19.148,-2.78939 34.4662,-3.34726 15.3185,-0.55788 39.7321,1.11576 57.4439,0 17.7118,-1.11575 34.945,-5.29985 48.8273,-6.69456 13.8823,-1.39469 22.9775,-1.11575 34.4663,-1.67362 11.4887,-0.55788 24.4136,-1.67364 34.4662,-1.67364 10.0527,0 13.8824,0.55787 25.8498,1.67364 11.9675,1.11576 32.0728,2.7894 45.9551,5.02092 13.8823,2.23151 19.6266,6.13664 37.3382,8.36816 17.7119,2.23151 55.5291,4.18409 68.9327,5.02091 13.4035,0.83682 3.3511,0.83682 11.489,0 8.1379,-0.83682 23.4559,-3.34727 37.3382,-5.02091 13.8824,-1.67364 29.2007,-4.46303 45.9551,-5.0209 16.7545,-0.55788 43.5615,0.83682 54.5716,1.67364 11.0101,0.83682 2.3936,1.11574 11.4889,3.34726 9.0953,2.23151 29.6791,7.81028 43.0826,10.04181 13.4036,2.23152 23.9351,3.34728 37.3386,3.34728 13.4036,0 31.5943,-2.51046 43.0831,-3.34728 11.4887,-0.83682 12.446,-1.11576 25.8495,-1.67364 13.4036,-0.55787 35.4237,-1.95256 54.5718,-1.67362 19.148,0.27893 50.2632,2.78939 60.316,3.34726 10.0525,0.55788 -4.3084,0 0,0 4.3082,0 20.5839,0 25.8497,0 5.2656,0 4.7868,0 5.7442,0 0.9574,0 0,0 0,0"
     fill="none"
     stroke-width="9.78506"
     stroke="url(#SvgjsLinearGradient1000)"
     stroke-linecap="round"
     stroke-dasharray="26, 5"
     id="path7596"
     style="stroke:url(#SvgjsLinearGradient1000)" />
  <defs
     id="defs7603">
    <linearGradient
       id="SvgjsLinearGradient1000"
       gradientTransform="matrix(9.3867419,0,0,0.63751888,-70.148004,-209.2992)"
       x1="7.4206662"
       y1="335.84085"
       x2="268.54095"
       y2="335.84085"
       gradientUnits="userSpaceOnUse">
      <stop
         stop-color="hsl(185, 53%, 55%)"
         offset="0"
         id="stop7598" />
      <stop
         stop-color="hsl(0, 73%, 55%)"
         offset="1"
         id="stop7600" />
    </linearGradient>
  </defs>
</svg>
