<?xml version="1.0"?>
<svg version="1.1" xmlns="http://www.w3.org/2000/svg" width="400" height="200" style=""><path fill="#01406e" d="M16.99560546875,111.77734375q0-2.2900390625,0.212646484375-5.9541015625t0.507080078125-7.55712890625t0.736083984375-7.377197265625t0.965087890625-5.348876953125q0.1962890625-0.81787109375,0.932373046875-0.9814453125t1.488525390625-0.16357421875q1.01416015625,0,1.750244140625,0.35986328125t0.736083984375,1.5703125q0,5.9541015625-0.736083984375,11.924560546875t-0.801513671875,11.924560546875q1.01416015625-1.53759765625,2.6171875-2.306396484375t3.40234375-0.768798828125q2.486328125,0,4.28564453125,1.01416015625t2.91162109375,2.6171875t1.652099609375,3.713134765625t0.539794921875,4.302001953125q0,1.21044921875-0.245361328125,3.026123046875t-0.736083984375,3.82763671875t-1.2431640625,3.9912109375t-1.782958984375,3.549560546875t-2.371826171875,2.535400390625t-2.9443359375,0.965087890625q-0.3271484375,0-0.866943359375-0.09814453125t-1.07958984375-0.29443359375t-0.899658203125-0.507080078125t-0.35986328125-0.768798828125q0-0.5234375,0.637939453125-0.736083984375t1.030517578125-0.212646484375q1.47216796875-0.654296875,2.6171875-2.731689453125t1.913818359375-4.563720703125t1.161376953125-4.923583984375t0.392578125-3.974853515625q0-0.88330078125-0.26171875-2.35546875t-0.801513671875-2.91162109375t-1.47216796875-2.486328125t-2.208251953125-1.046875q-1.53759765625,0-2.45361328125,1.586669921875t-1.439453125,3.69677734375t-0.703369140625,4.35107421875t-0.179931640625,3.516845703125q0,0.81787109375,0.278076171875,1.619384765625t0.637939453125,1.60302734375t0.637939453125,1.6357421875t0.278076171875,1.652099609375q0,0.392578125-0.343505859375,0.654296875t-0.801513671875,0.42529296875t-0.965087890625,0.212646484375t-0.768798828125,0.049072265625q-1.86474609375,0-2.58447265625-0.88330078125t-1.2431640625-2.486328125q-1.14501953125-3.63134765625-1.586669921875-7.377197265625t-0.441650390625-7.508056640625z M44.923286132812,121.4609375l0-0.94873046875q0-1.177734375,0.0654296875-2.224609375q0.0654296875-1.47216796875,0.0654296875-2.4208984375q0-0.5234375,0.0654296875-1.194091796875t0.3271484375-1.063232421875q0.3271484375-0.3271484375,0.768798828125-0.670654296875t0.965087890625-0.343505859375q1.66845703125,0,2.6171875,0.376220703125t1.01416015625,1.553955078125l0.130859375,1.01416015625q0.5888671875-1.40673828125,1.5703125-3.484130859375t2.273681640625-3.95849609375t2.91162109375-3.2060546875t3.418701171875-1.324951171875q1.66845703125,0,2.748046875,1.5703125t1.717529296875,4.007568359375t0.899658203125,5.4306640625t0.35986328125,5.872314453125t0.130859375,5.250732421875t0.22900390625,3.582275390625q0.130859375,1.01416015625,0.441650390625,2.142822265625t0.310791015625,2.077392578125q0,0.26171875-0.376220703125,0.507080078125t-0.801513671875,0.408935546875t-0.866943359375,0.26171875t-0.637939453125,0.09814453125q-1.27587890625,0-1.815673828125-1.913818359375t-0.670654296875-4.792724609375t-0.130859375-6.232177734375t-0.22900390625-6.232177734375t-0.932373046875-4.792724609375t-2.240966796875-1.979248046875q-1.40673828125,0-2.91162109375,1.815673828125t-2.58447265625,4.825439453125q-1.046875,3.009765625-1.439453125,6.83740234375q-0.130859375,1.21044921875-0.130859375,2.4208984375q0,2.64990234375,0.55615234375,5.2998046875q0.0654296875,0.4580078125-0.376220703125,0.68701171875t-1.095947265625,0.35986328125t-1.324951171875,0.16357421875t-1.030517578125,0.03271484375q-1.27587890625,0-2.044677734375-0.899658203125t-1.194091796875-2.306396484375t-0.572509765625-3.156982421875t-0.179931640625-3.451416015625z M73.308974609375,118.41845703125q0-0.654296875,0.147216796875-1.73388671875t0.343505859375-2.142822265625t0.4580078125-1.979248046875t0.62158203125-1.177734375q0.26171875-0.26171875,0.899658203125-0.5234375t1.34130859375-0.376220703125t1.30859375,0.09814453125t0.736083984375,0.866943359375q-0.4580078125,0.5888671875-0.834228515625,2.011962890625t-0.572509765625,3.156982421875q-0.16357421875,1.47216796875-0.16357421875,3.04248046875l0,0.55615234375q0.03271484375,1.83203125,0.3271484375,3.36962890625t0.899658203125,2.535400390625t1.684814453125,0.997802734375q2.2900390625,0,4.1875-2.110107421875t3.36962890625-5.152587890625t2.58447265625-6.461181640625t1.8974609375-5.970458984375q0.1962890625-0.75244140625,0.932373046875-1.01416015625t1.586669921875-0.179931640625t1.521240234375,0.408935546875t0.801513671875,0.78515625q-0.654296875,5.49609375-1.030517578125,10.9921875t-0.376220703125,11.0576171875q0,1.07958984375,0.09814453125,1.979248046875t-0.09814453125,1.53759765625t-0.866943359375,1.01416015625t-2.142822265625,0.376220703125q-0.3271484375,0-0.834228515625-0.0654296875t-1.046875-0.212646484375t-0.916015625-0.441650390625t-0.376220703125-0.68701171875q0-2.4208984375,0.179931640625-4.97265625t0.507080078125-4.93994140625q-0.88330078125,1.27587890625-1.946533203125,2.535400390625t-2.339111328125,2.273681640625t-2.748046875,1.619384765625t-3.17333984375,0.605224609375q-2.4208984375,0-3.811279296875-1.14501953125t-2.09375-2.862548828125t-0.88330078125-3.745849609375t-0.179931640625-3.92578125z M104.08284667969,109.45458984375q0-1.53759765625,0.605224609375-2.273681640625t2.208251953125-0.736083984375q0.94873046875,0,1.782958984375,0.392578125t0.834228515625,1.66845703125q0.130859375,1.86474609375,0.130859375,3.909423828125t0.35986328125,3.876708984375q0.81787109375-1.34130859375,1.848388671875-2.6826171875t2.273681640625-2.38818359375t2.71533203125-1.684814453125t3.2060546875-0.637939453125q2.35546875,0,3.9912109375,0.9814453125t2.698974609375,2.5517578125t1.53759765625,3.549560546875t0.474365234375,3.974853515625q0,3.0751953125-0.932373046875,5.021728515625t-2.469970703125,3.058837890625t-3.484130859375,1.5048828125t-3.909423828125,0.392578125q-1.73388671875,0-3.23876953125-0.670654296875t-2.09375-2.535400390625q0-0.5234375,0.768798828125-0.654296875t1.095947265625-0.130859375q1.07958984375,0,1.60302734375,0.5888671875q0.392578125,0.4580078125,0.866943359375,0.932373046875t0.997802734375,0.474365234375q1.01416015625,0,2.12646484375-0.572509765625t2.044677734375-1.5048828125t1.5703125-2.208251953125t0.637939453125-2.6171875q0-1.14501953125-0.1962890625-2.84619140625t-0.670654296875-3.271484375t-1.30859375-2.71533203125t-2.110107421875-1.14501953125q-1.93017578125,0-3.484130859375,1.7666015625t-2.58447265625,4.2529296875t-1.60302734375,5.1689453125t-0.572509765625,4.48193359375t0.22900390625,4.54736328125t0.474365234375,5.708740234375t0.474365234375,5.708740234375t0.22900390625,4.54736328125q0,0.4580078125-0.376220703125,0.736083984375t-0.899658203125,0.441650390625t-1.063232421875,0.1962890625t-0.801513671875,0.03271484375q-0.88330078125,0-1.848388671875-0.1962890625t-1.324951171875-1.21044921875q-0.4580078125-1.60302734375-0.8505859375-4.563720703125t-0.703369140625-6.54296875t-0.539794921875-7.5244140625t-0.392578125-7.606201171875t-0.245361328125-6.70654296875t-0.081787109375-4.841796875z"/><path fill="#" d="M154.32598046875,97.088l-2.128,0l-5.964,14.812l-5.628-14.812l-1.764,0l7.392,19.712z M168.23750046875,99.244l-10.556,0l0-2.128l10.556,0q2.072,0,3.472,1.624q1.428,1.652,1.428,4.004q0,2.128-1.428,3.696q-1.4,1.596-3.472,1.596l-2.8,0l-2.856,0q-1.26,0-2.24,1.064q-0.924,1.12-0.924,2.436q0,1.568,0.91,2.548t2.254,0.98l10.556,0l0,1.736l-10.556,0q-2.1,0-3.5-1.456t-1.4-3.808q0-2.128,1.4-3.696q1.428-1.568,3.5-1.568l2.856,0l2.8,0q1.288,0,2.212-1.12q0.952-1.036,0.952-2.408q0-1.568-0.91-2.534t-2.254-0.966z M180.55302046875,115.232q0-0.896-0.546-1.442t-1.442-0.546q-0.616,0-1.092,0.56t-0.476,1.428q0,0.588,0.49,1.078t1.078,0.49q0.868,0,1.428-0.476t0.56-1.092z M197.54454046875,102.548q0,1.344-0.952,2.436q-0.952,1.148-2.296,1.148l-0.364,0l-5.236,0l0,1.764l5.236,0l0.364,0q1.428,0.28,2.338,1.246t0.91,2.282q0,1.652-0.966,2.632t-2.646,0.98l-9.52,0l0,1.764l9.52,0q2.156,0,3.752-1.596t1.596-3.78q0-1.428-0.532-2.576t-1.568-1.652q2.1-1.568,2.1-4.648q0-2.212-1.596-3.752q-1.652-1.652-3.752-1.652l-9.52,0l0,1.876l9.52,0q1.68,0,2.646,0.952t0.966,2.576z M206.69606046875,115.232q0-0.896-0.546-1.442t-1.442-0.546q-0.616,0-1.092,0.56t-0.476,1.428q0,0.588,0.49,1.078t1.078,0.49q0.868,0,1.428-0.476t0.56-1.092z M218.28358046875,97.2q-3.164,0-5.432,2.268q-2.296,2.296-2.296,5.46l0,4.228q0,3.108,2.296,5.404t5.432,2.296q3.164,0,5.46-2.296q2.268-2.268,2.268-5.404l0-4.228q0-3.192-2.268-5.46t-5.46-2.268z M224.27558046875,104.928l0,4.228q0,2.548-1.792,4.284q-1.764,1.68-4.2,1.68t-4.172-1.68q-1.792-1.736-1.792-4.284l0-4.228q0-2.352,1.792-4.2q1.792-1.792,4.172-1.792q2.352,0,4.2,1.792q1.792,1.848,1.792,4.2z"/></svg>
