<svg fill="none" height="24" viewBox="0 0 24 24" width="24" xmlns="http://www.w3.org/2000/svg"><g fill="#292d32"><path d="m16.5904 7.41-10.27996 10.28c-.48.48-1.3.37-1.59-.24-.52-1.07-.82-2.28-.82-3.55-.02-5.52 5.58-10.24 7.47996-11.69.37-.28.87-.28 1.23 0 .87.66 2.5 2.03 4.03 3.83.34.4.32 1-.05 1.37z"/><path d="m20.1 13.91c0 4.46-3.63 8.09-8.1 8.09-1.79 0-3.46004-.58-4.81004-1.58-.49-.36-.53-1.08-.1-1.51l10.07004-10.06998c.47-.47 1.26-.37 1.58.21.82 1.50998 1.37 3.14998 1.36 4.85998z" opacity=".4"/></g></svg>