<svg id="visual" viewBox="0 0 900 600" width="900" height="600" xmlns="http://www.w3.org/2000/svg" xmlns:xlink="http://www.w3.org/1999/xlink" version="1.1"><rect x="0" y="0" width="900" height="600" fill="#140021"></rect><path d="M0 132L90 132L90 130L180 130L180 121L270 121L270 138L360 138L360 140L450 140L450 92L540 92L540 140L630 140L630 107L720 107L720 140L810 140L810 100L900 100L900 114L900 0L900 0L810 0L810 0L720 0L720 0L630 0L630 0L540 0L540 0L450 0L450 0L360 0L360 0L270 0L270 0L180 0L180 0L90 0L90 0L0 0Z" fill="#9900ff"></path><path d="M0 98L90 98L90 105L180 105L180 128L270 128L270 133L360 133L360 142L450 142L450 136L540 136L540 85L630 85L630 93L720 93L720 92L810 92L810 140L900 140L900 96L900 0L900 0L810 0L810 0L720 0L720 0L630 0L630 0L540 0L540 0L450 0L450 0L360 0L360 0L270 0L270 0L180 0L180 0L90 0L90 0L0 0Z" fill="#8900e5"></path><path d="M0 82L90 82L90 112L180 112L180 102L270 102L270 117L360 117L360 129L450 129L450 82L540 82L540 106L630 106L630 115L720 115L720 106L810 106L810 114L900 114L900 85L900 0L900 0L810 0L810 0L720 0L720 0L630 0L630 0L540 0L540 0L450 0L450 0L360 0L360 0L270 0L270 0L180 0L180 0L90 0L90 0L0 0Z" fill="#7a00cb"></path><path d="M0 93L90 93L90 85L180 85L180 82L270 82L270 107L360 107L360 78L450 78L450 78L540 78L540 111L630 111L630 105L720 105L720 87L810 87L810 94L900 94L900 66L900 0L900 0L810 0L810 0L720 0L720 0L630 0L630 0L540 0L540 0L450 0L450 0L360 0L360 0L270 0L270 0L180 0L180 0L90 0L90 0L0 0Z" fill="#6b00b2"></path><path d="M0 70L90 70L90 94L180 94L180 103L270 103L270 74L360 74L360 56L450 56L450 63L540 63L540 81L630 81L630 73L720 73L720 55L810 55L810 77L900 77L900 87L900 0L900 0L810 0L810 0L720 0L720 0L630 0L630 0L540 0L540 0L450 0L450 0L360 0L360 0L270 0L270 0L180 0L180 0L90 0L90 0L0 0Z" fill="#5c009a"></path><path d="M0 64L90 64L90 91L180 91L180 74L270 74L270 58L360 58L360 55L450 55L450 93L540 93L540 68L630 68L630 69L720 69L720 84L810 84L810 93L900 93L900 56L900 0L900 0L810 0L810 0L720 0L720 0L630 0L630 0L540 0L540 0L450 0L450 0L360 0L360 0L270 0L270 0L180 0L180 0L90 0L90 0L0 0Z" fill="#560090"></path><path d="M0 63L90 63L90 62L180 62L180 56L270 56L270 77L360 77L360 56L450 56L450 57L540 57L540 62L630 62L630 64L720 64L720 75L810 75L810 41L900 41L900 80L900 0L900 0L810 0L810 0L720 0L720 0L630 0L630 0L540 0L540 0L450 0L450 0L360 0L360 0L270 0L270 0L180 0L180 0L90 0L90 0L0 0Z" fill="#560090"></path><path d="M0 35L90 35L90 58L180 58L180 42L270 42L270 53L360 53L360 58L450 58L450 34L540 34L540 48L630 48L630 64L720 64L720 55L810 55L810 51L900 51L900 40L900 0L900 0L810 0L810 0L720 0L720 0L630 0L630 0L540 0L540 0L450 0L450 0L360 0L360 0L270 0L270 0L180 0L180 0L90 0L90 0L0 0Z" fill="#5c009a"></path><path d="M0 39L90 39L90 44L180 44L180 57L270 57L270 48L360 48L360 57L450 57L450 47L540 47L540 51L630 51L630 53L720 53L720 27L810 27L810 26L900 26L900 44L900 0L900 0L810 0L810 0L720 0L720 0L630 0L630 0L540 0L540 0L450 0L450 0L360 0L360 0L270 0L270 0L180 0L180 0L90 0L90 0L0 0Z" fill="#6b00b2"></path><path d="M0 43L90 43L90 29L180 29L180 30L270 30L270 20L360 20L360 44L450 44L450 40L540 40L540 23L630 23L630 21L720 21L720 23L810 23L810 39L900 39L900 39L900 0L900 0L810 0L810 0L720 0L720 0L630 0L630 0L540 0L540 0L450 0L450 0L360 0L360 0L270 0L270 0L180 0L180 0L90 0L90 0L0 0Z" fill="#7a00cb"></path><path d="M0 12L90 12L90 23L180 23L180 29L270 29L270 23L360 23L360 24L450 24L450 12L540 12L540 29L630 29L630 22L720 22L720 14L810 14L810 26L900 26L900 33L900 0L900 0L810 0L810 0L720 0L720 0L630 0L630 0L540 0L540 0L450 0L450 0L360 0L360 0L270 0L270 0L180 0L180 0L90 0L90 0L0 0Z" fill="#8900e5"></path><path d="M0 14L90 14L90 11L180 11L180 9L270 9L270 18L360 18L360 11L450 11L450 12L540 12L540 8L630 8L630 7L720 7L720 6L810 6L810 14L900 14L900 17L900 0L900 0L810 0L810 0L720 0L720 0L630 0L630 0L540 0L540 0L450 0L450 0L360 0L360 0L270 0L270 0L180 0L180 0L90 0L90 0L0 0Z" fill="#9900ff"></path></svg>