<svg viewBox="0 0 14 14" xmlns="http://www.w3.org/2000/svg"><path d="m5.04774 12.5565c0-.4381.003-.4435.27769-.495.82888-.1555 1.20667-1.2834.65104-1.9437-.29595-.3517-.4402-.4083-1.25734-.4928-1.23026-.1273-2.27092-.6219-3.14201-1.4934l-.43389-.434 1.95226-.022 1.95225-.022v-.2451-.2451h3.90451 3.90452v.4838.4839l-.36312.055c-.44413.067-.95535.4238-1.25547.8773-.26379.3986-.3522 1.1842-.18896 1.6788.20541.6224 1.00595 1.2651 1.5815 1.2697.22128 0 .22605.012.22605.495v.4932h-1.47961c-1.44829 0-1.4796 0-1.4796-.1726 0-.095-.12577-.2984-.27948-.4521-.23439-.2344-.33871-.2795-.64652-.2795-.44293 0-.74668.2102-.8945.619l-.10314.2852h-1.46309-1.46309v-.443zm-2.0326-5.496c-.044-.057-.18403-.481-.31127-.9433l-.23135-.8406-.37132.019c-.37122.019-.37134.018-.47561-.3347-.12901-.437-.0834-.5673.22227-.6344.13133-.029.25322-.077.27086-.1078.0176-.03-.0542-.3512-.15956-.7129l-.19162-.6576.45949-.8631c.49044-.9213.54227-.9832.82446-.9852.22701 0 .27876.098.55317 1.0674.12162.4295.2752.9697.34129 1.2006l.12016.4196 3.99574-1.1427c2.19765-.6286 4.05377-1.1316 4.12469-1.118.13892.027.36012.6605.29227.8373-.0499.13.16237.064-4.30746 1.3361-2.01185.5725-3.68878 1.0678-3.72652 1.1008-.0596.052.0154.3823.34814 1.5323.10971.3792-.0137.4888-.81383.7227-.81047.2369-.85737.242-.964.1049zm4.66301-.6595c.0226-.023.89065-.2719 1.92899-.5533 1.03835-.2814 1.93063-.5281 1.98287-.5481.0522-.02.11305.058.13516.1738.0221.1157.035.2103.0287.2103-.0305 0-3.65544.6626-3.87021.7075-.13563.028-.22811.033-.2055.01zm-1.71936-.2541c.072-.063 3.77414-1.6962 3.84498-1.6962.041 0 .0932.071.116.1583.0492.1881.1734.1334-2.15697.9497-1.70012.5955-1.87899.6538-1.80401.5882z"/></svg>