<svg fill="none" height="24" viewBox="0 0 24 24" width="24" xmlns="http://www.w3.org/2000/svg"><g fill="#292d32"><path d="m14.7295 2h-5.45997v4.36h5.45997z"/><path d="m16.2305 2v4.36h5.64c-.51-2.75-2.54-4.35-5.64-4.36z"/><path d="m2 7.85938v8.33002c0 3.64 2.17 5.81 5.81 5.81h8.38c3.64 0 5.81-2.17 5.81-5.81v-8.33002zm12.44 8.32002-2.08 1.2c-.44.25-.87.38-1.27.38-.3 0-.57-.07-.82-.21-.58-.33-.9-1.01-.9-1.89v-2.4c0-.88.32-1.56.9-1.89.58-.34 1.32-.28 2.09.17l2.08 1.2c.77.44 1.19 1.06 1.19 1.73s-.43 1.26-1.19 1.71z"/><path d="m7.76891 2c-3.1.01-5.13 1.61-5.64 4.36h5.64z"/></g></svg>